<svg width="120" height="47" viewBox="0 0 120 47" fill="none" xmlns="http://www.w3.org/2000/svg">
<g clip-path="url(#clip0_48_289)">
<path d="M59.417 0.00102556C26.544 0.147026 -0.0560033 10.624 -3.29377e-06 23.412C0.0559967 36.2 26.749 46.437 59.621 46.292C92.493 46.147 119.097 35.666 119.041 22.887C118.985 10.108 92.291 -0.142974 59.417 0.00102556ZM59.617 45.136C28.387 45.273 3.027 35.541 2.974 23.399C2.921 11.257 28.193 1.29304 59.423 1.15604C90.653 1.01904 116.009 10.756 116.064 22.9C116.119 35.044 90.845 45 59.617 45.136Z" fill="#838484"/>
<path d="M21.716 37.056C21.716 37.056 25.116 30.311 16.738 26.907C16.6973 26.8878 16.6532 26.8771 16.6083 26.8756C16.5634 26.874 16.5186 26.8817 16.4767 26.8981C16.4349 26.9145 16.3968 26.9392 16.3649 26.9708C16.3329 27.0025 16.3078 27.0403 16.291 27.082C16.2577 27.168 16.2572 27.2633 16.2894 27.3497C16.3217 27.4361 16.3845 27.5077 16.466 27.551C16.466 27.551 21.95 30.992 21.716 37.057" fill="#838484"/>
<path d="M16.407 30.915L18.845 30.723C19.139 31.125 19.3436 31.5853 19.445 32.073L16.739 32.349C16.739 32.349 16.232 32.28 15.91 31.541C15.8936 31.466 15.8942 31.3883 15.9117 31.3135C15.9291 31.2388 15.9631 31.1689 16.011 31.1089C16.0589 31.0489 16.1195 31.0004 16.1886 30.9669C16.2576 30.9333 16.3332 30.9156 16.41 30.915" fill="#838484"/>
<path d="M21.999 30.331C22.299 30.6216 22.5493 30.9594 22.74 31.331C49.0797 28.856 75.5979 28.9565 101.918 31.631L103.239 31.34C57.912 26.28 26.333 29.677 21.999 30.323" fill="#838484"/>
<path d="M30.702 23.589C30.1156 23.0258 29.6558 22.3442 29.3532 21.5895C29.0506 20.8348 28.9121 20.0244 28.947 19.212C28.932 15.626 31.867 12.351 36.858 12.329C38.6472 12.2154 40.4202 12.7269 41.874 13.776C42.5612 14.3027 43.1174 14.9811 43.499 15.7582C43.8806 16.5354 44.0774 17.3902 44.074 18.256C44.093 22.696 40.742 25.571 36.296 25.591C35.2748 25.6656 34.2492 25.5262 33.285 25.1818C32.3207 24.8375 31.4389 24.2956 30.696 23.591M41.872 19.591C41.856 15.748 39.181 13.011 36.182 13.024C35.478 13.0087 34.7785 13.1403 34.1283 13.4105C33.478 13.6807 32.8913 14.0836 32.4055 14.5934C31.9198 15.1031 31.5456 15.7086 31.3071 16.3711C31.0685 17.0336 30.9707 17.7386 31.02 18.441C31.0139 20.0989 31.6525 21.6943 32.8008 22.8902C33.9491 24.086 35.5172 24.7888 37.174 24.85C38.4926 24.7706 39.7265 24.1733 40.6068 23.1883C41.4871 22.2033 41.9426 20.9103 41.874 19.591" fill="#838484"/>
<path d="M90.214 23.3271C89.6255 22.7654 89.1641 22.0843 88.8607 21.3295C88.5573 20.5747 88.419 19.7637 88.455 18.951C88.439 15.364 91.372 12.09 96.355 12.068C98.144 11.9515 99.9176 12.4629 101.37 13.514C102.059 14.0398 102.617 14.7181 103.001 15.4957C103.384 16.2733 103.582 17.1291 103.579 17.996C103.599 22.436 100.247 25.311 95.8 25.331C94.7802 25.4046 93.7563 25.2648 92.7937 24.9204C91.831 24.5761 90.9507 24.0348 90.209 23.331M101.379 19.331C101.362 15.488 98.693 12.75 95.692 12.764C94.9876 12.7479 94.2875 12.8789 93.6366 13.1486C92.9856 13.4184 92.3981 13.821 91.9117 14.3307C91.4252 14.8405 91.0504 15.4461 90.8113 16.1089C90.5722 16.7717 90.474 17.4771 90.523 18.18C90.5192 19.8384 91.1593 21.4334 92.3084 22.6291C93.4575 23.8249 95.0258 24.5279 96.683 24.5901C98.0017 24.5106 99.2355 23.9133 100.116 22.9283C100.996 21.9433 101.452 20.6503 101.383 19.331" fill="#838484"/>
<path d="M46.323 17.595C46.323 16.752 46.265 13.326 46.165 12.954C45.684 12.854 44.631 12.737 44.185 12.7L44.144 12.308C44.425 12.344 46.444 12.367 47.228 12.365C47.88 12.365 50.113 12.281 51.55 12.275C53.3462 12.1777 55.1426 12.4633 56.82 13.113C57.722 13.479 58.496 14.103 59.0451 14.9069C59.5942 15.7107 59.894 16.6586 59.907 17.632C59.924 21.584 56.836 25.475 49.659 25.507C48.616 25.507 44.652 25.545 44.203 25.565L44.276 25.17C44.9294 25.1331 45.5788 25.0439 46.218 24.903C46.318 24.585 46.339 21.252 46.329 19.081L46.323 17.595ZM48.459 19.239C48.459 20.248 48.532 23.771 48.611 24.446C49.2639 24.6812 49.9553 24.7911 50.649 24.77C54.222 24.754 57.628 22.642 57.61 18.648C57.6462 17.8152 57.4777 16.9862 57.1193 16.2336C56.7608 15.481 56.2234 14.8278 55.554 14.331C53.9397 13.3679 52.0802 12.8954 50.202 12.971C49.6525 12.9712 49.1037 13.0113 48.56 13.091C48.499 13.372 48.451 17.682 48.455 18.505L48.459 19.239Z" fill="#838484"/>
<path d="M64.637 18.885C64.648 21.321 64.68 24.448 64.762 24.827C65.225 24.927 66.348 25.042 66.723 25.078L66.817 25.469C66.405 25.434 64.462 25.406 63.299 25.411C62.667 25.411 60.946 25.458 60.383 25.498L60.452 25.107C60.775 25.082 62.046 24.907 62.439 24.837C62.511 24.046 62.515 20.578 62.506 18.748V17.641C62.506 17.022 62.469 13.521 62.392 12.884C62.018 12.807 60.782 12.666 60.428 12.628L60.328 12.236C60.684 12.272 62.407 12.299 63.883 12.293C64.835 12.293 66.444 12.247 66.762 12.208L66.67 12.602C66.295 12.644 65.379 12.794 64.712 12.876C64.634 13.249 64.625 15.421 64.635 17.723L64.637 18.885Z" fill="#838484"/>
<path d="M86.201 18.787C86.212 21.223 86.242 24.35 86.32 24.729C86.788 24.829 87.909 24.944 88.284 24.98L88.378 25.37C87.967 25.337 86.023 25.308 84.863 25.313C84.229 25.313 82.515 25.36 81.947 25.398L82.021 25.008C82.338 24.983 83.609 24.808 84 24.738C84.072 23.947 84.074 20.479 84.067 18.65V17.542C84.067 16.924 84.03 13.422 83.953 12.783C83.58 12.709 82.345 12.568 81.99 12.529L81.89 12.137C82.246 12.173 83.968 12.2 85.442 12.194C86.394 12.194 88.004 12.148 88.321 12.109L88.229 12.503C87.855 12.545 86.941 12.695 86.267 12.774C86.193 13.149 86.187 15.322 86.196 17.623L86.201 18.787Z" fill="#838484"/>
<path d="M21.889 19.445C23.724 21.6232 25.6836 23.6934 27.758 25.645L28.83 25.474C27.0923 23.3072 25.5212 21.012 24.13 18.608C25.569 17.792 26.763 16.233 26.758 15.056C26.752 14.5734 26.5912 14.1054 26.2995 13.7209C26.0077 13.3364 25.6002 13.0557 25.137 12.92C23.4134 12.4796 21.6316 12.3109 19.856 12.42L15.811 12.46L15.87 12.851C16.281 12.888 17.555 12.993 17.87 13.069C17.944 13.422 17.98 17.026 17.983 17.702V18.851C17.992 20.818 17.983 24.491 17.919 25.041C17.2622 25.1676 16.5988 25.2574 15.932 25.31L15.86 25.702C16.292 25.666 18.26 25.618 19.026 25.614C19.884 25.614 21.776 25.642 22.245 25.673L22.166 25.282C21.5061 25.2311 20.8493 25.1466 20.198 25.029C20.14 24.166 20.09 21.278 20.085 20.055V19.57C20.406 19.57 21.17 19.508 21.885 19.447M20.085 18.407C20.079 17.074 20.101 13.715 20.152 12.944C23.391 12.929 24.489 14.391 24.494 15.589C24.5035 16.253 24.3035 16.9031 23.9224 17.4469C23.5412 17.9907 22.9984 18.4005 22.371 18.618C21.6378 18.8763 20.8642 19.0009 20.087 18.986L20.085 18.407Z" fill="#838484"/>
<path d="M79.878 21.749C79.7378 22.378 79.5323 22.9907 79.265 23.577C78.286 24.398 73.797 24.735 71.455 24.655C72.455 23.115 79.386 13.485 80.421 12.173C79.25 12.237 75.421 12.292 75.021 12.293C74.548 12.293 70.644 12.216 70.248 12.145C70.231 11.865 70.194 11.334 70.171 10.823L69.735 10.723C69.6681 12.2632 69.5192 13.7987 69.289 15.323L69.789 15.261C69.941 14.723 70.143 14.013 70.268 13.688C70.832 13.153 76.038 12.815 77.32 12.845C76.72 13.945 69.203 24.445 68.266 25.453C69.942 25.391 72.599 25.323 73.41 25.319C75.3122 25.2853 77.2148 25.352 79.11 25.519C79.11 25.875 79.069 26.419 79.054 26.786L79.488 26.913C79.546 26.127 80.088 23.213 80.356 21.678L79.878 21.749Z" fill="#838484"/>
<path d="M35.227 37.695C35.0274 37.5162 34.8697 37.2957 34.7649 37.049C34.6602 36.8024 34.6111 36.5357 34.621 36.268C34.6192 36.0193 34.6679 35.7729 34.7644 35.5438C34.8608 35.3146 35.0029 35.1075 35.182 34.935C35.6049 34.567 36.1567 34.3821 36.716 34.421C36.95 34.4158 37.1841 34.4292 37.416 34.461C37.595 34.483 37.753 34.527 37.902 34.538C37.954 34.548 37.973 34.569 37.974 34.597C37.975 34.625 37.958 34.697 37.95 34.864C37.942 35.031 37.95 35.292 37.936 35.386C37.93 35.464 37.922 35.499 37.878 35.5C37.834 35.501 37.831 35.465 37.831 35.4C37.8223 35.2314 37.7543 35.0713 37.639 34.948C37.3575 34.7304 37.006 34.6236 36.651 34.648C36.4867 34.6367 36.3217 34.6579 36.1656 34.7104C36.0094 34.7629 35.8652 34.8457 35.741 34.954C35.5812 35.1208 35.459 35.32 35.3826 35.538C35.3062 35.756 35.2773 35.9879 35.298 36.218C35.2858 36.4317 35.3159 36.6456 35.3865 36.8477C35.4571 37.0497 35.5667 37.2359 35.7093 37.3956C35.8518 37.5552 36.0245 37.6852 36.2173 37.7781C36.4101 37.871 36.6193 37.925 36.833 37.937C37.27 37.937 37.533 37.883 37.722 37.657C37.801 37.566 37.8575 37.4578 37.887 37.341C37.902 37.261 37.914 37.241 37.954 37.241C37.994 37.241 37.996 37.274 37.996 37.315C37.9757 37.5318 37.9403 37.747 37.89 37.959C37.8853 37.9923 37.871 38.0235 37.8488 38.0487C37.8266 38.0739 37.7974 38.0921 37.765 38.101C37.4825 38.1849 37.1887 38.2247 36.894 38.219C36.2925 38.2575 35.6982 38.0707 35.227 37.695Z" fill="#838484"/>
<path d="M39.274 37.097C39.246 37.097 39.241 37.097 39.232 37.124L39.003 37.688C38.9693 37.7658 38.9499 37.8492 38.946 37.934C38.946 38.008 38.984 38.053 39.114 38.053H39.175C39.233 38.053 39.243 38.072 39.243 38.098C39.243 38.124 39.217 38.14 39.171 38.141C39.034 38.141 38.833 38.129 38.696 38.129C38.653 38.129 38.425 38.144 38.203 38.145C38.149 38.145 38.126 38.135 38.126 38.102C38.1255 38.0959 38.1263 38.0898 38.1285 38.0842C38.1307 38.0785 38.1341 38.0734 38.1385 38.0693C38.143 38.0651 38.1483 38.062 38.1541 38.0603C38.1599 38.0585 38.166 38.058 38.172 38.059C38.212 38.059 38.26 38.052 38.301 38.052C38.493 38.025 38.56 37.897 38.65 37.692L39.757 35.109C39.805 34.988 39.841 34.939 39.883 34.939C39.946 34.939 39.966 34.979 40.009 35.069C40.109 35.304 40.835 36.969 41.109 37.593C41.274 37.966 41.392 38.016 41.472 38.03C41.526 38.0386 41.5804 38.0436 41.635 38.045C41.672 38.045 41.694 38.057 41.694 38.088C41.694 38.119 41.668 38.131 41.508 38.131C41.348 38.131 41.048 38.131 40.686 38.125C40.608 38.125 40.561 38.125 40.561 38.093C40.561 38.061 40.57 38.055 40.614 38.048C40.6231 38.0449 40.6315 38.0399 40.6385 38.0332C40.6454 38.0266 40.6509 38.0185 40.6544 38.0096C40.6579 38.0006 40.6594 37.991 40.6589 37.9814C40.6583 37.9718 40.6556 37.9624 40.651 37.954L40.318 37.121C40.309 37.096 40.296 37.094 40.275 37.095L39.274 37.097ZM40.181 36.863C40.197 36.863 40.206 36.852 40.197 36.839L39.797 35.807C39.791 35.791 39.781 35.767 39.773 35.767C39.765 35.767 39.757 35.792 39.747 35.807L39.347 36.839C39.335 36.855 39.347 36.866 39.362 36.866L40.181 36.863Z" fill="#838484"/>
<path d="M42.15 36.198C42.15 35.577 42.15 35.455 42.143 35.324C42.136 35.193 42.093 35.142 41.959 35.102C41.9019 35.0918 41.844 35.0868 41.786 35.087C41.741 35.087 41.714 35.075 41.714 35.041C41.714 35.007 41.746 35.01 41.814 35.01C42.037 35.01 42.314 35.01 42.398 35.01C42.545 35.01 42.931 35.004 43.06 35.003C43.3421 34.9809 43.6246 35.0402 43.874 35.174C43.9652 35.2381 44.04 35.3229 44.0921 35.4214C44.1442 35.52 44.1723 35.6295 44.174 35.741C44.174 36.041 44.003 36.315 43.589 36.651C43.8851 37.0337 44.2009 37.4009 44.535 37.751C44.6519 37.8889 44.8124 37.9828 44.99 38.017C45.0228 38.0245 45.0564 38.0279 45.09 38.027C45.1033 38.0263 45.1164 38.0302 45.1271 38.038C45.1378 38.0459 45.1456 38.0571 45.149 38.07C45.149 38.103 45.118 38.113 45.065 38.115H44.658C44.4963 38.1268 44.3341 38.0997 44.185 38.036C43.9501 37.8766 43.7512 37.6698 43.601 37.429C43.433 37.209 43.254 36.929 43.201 36.87C43.1918 36.8593 43.1802 36.8509 43.1672 36.8455C43.1542 36.8402 43.14 36.8379 43.126 36.839L42.741 36.833C42.7365 36.8325 42.732 36.833 42.7278 36.8345C42.7236 36.836 42.7198 36.8384 42.7166 36.8416C42.7134 36.8448 42.711 36.8486 42.7095 36.8528C42.7081 36.857 42.7075 36.8615 42.708 36.866V36.928C42.7023 37.2203 42.7123 37.5127 42.738 37.804C42.748 37.92 42.773 38.004 42.904 38.021C42.973 38.0298 43.0425 38.0344 43.112 38.035C43.1247 38.0344 43.1371 38.0388 43.1466 38.0472C43.1561 38.0556 43.162 38.0673 43.163 38.08C43.163 38.11 43.131 38.122 43.076 38.123C42.828 38.123 42.476 38.112 42.413 38.112C42.33 38.112 42.059 38.127 41.888 38.128C41.835 38.128 41.808 38.114 41.806 38.085C41.804 38.056 41.821 38.042 41.875 38.042C41.9251 38.0422 41.9751 38.0368 42.024 38.026C42.116 38.007 42.133 37.926 42.151 37.808C42.167 37.633 42.166 37.308 42.163 36.932L42.15 36.198ZM42.695 36.517C42.695 36.562 42.709 36.579 42.731 36.588C42.8373 36.6181 42.9476 36.6316 43.058 36.628C43.1648 36.6408 43.2727 36.6168 43.364 36.56C43.4568 36.4884 43.5302 36.3947 43.5773 36.2874C43.6245 36.1802 43.644 36.0627 43.634 35.946C43.6462 35.8535 43.6384 35.7594 43.611 35.6702C43.5836 35.581 43.5372 35.4988 43.4752 35.4292C43.4131 35.3595 43.3367 35.304 43.2513 35.2666C43.1658 35.2291 43.0733 35.2105 42.98 35.212C42.895 35.2131 42.8101 35.2198 42.726 35.232C42.7144 35.2363 42.7046 35.2444 42.6981 35.2549C42.6916 35.2654 42.6888 35.2777 42.69 35.29L42.695 36.517Z" fill="#838484"/>
<path d="M45.757 37.549C45.764 37.867 45.816 37.9619 45.901 37.9949C45.975 38.0149 46.0514 38.0244 46.128 38.0229C46.176 38.0229 46.205 38.0399 46.205 38.0659C46.205 38.0919 46.164 38.1089 46.105 38.1089C45.828 38.1089 45.633 38.0979 45.554 38.0979C45.518 38.0979 45.314 38.1129 45.094 38.1129C45.036 38.1129 44.994 38.113 44.994 38.071C44.994 38.029 45.027 38.0259 45.066 38.0259C45.1293 38.025 45.1925 38.0196 45.255 38.0099C45.368 37.9749 45.386 37.8639 45.386 37.5099L45.419 35.0629C45.419 34.9789 45.44 34.9189 45.483 34.9189C45.526 34.9189 45.597 34.9829 45.671 35.0609C45.722 35.1079 46.371 35.7609 46.992 36.3669C47.284 36.6499 47.856 37.2329 47.914 37.2879H47.939L47.889 35.452C47.889 35.204 47.842 35.1279 47.737 35.0959C47.6656 35.0704 47.5897 35.0599 47.514 35.0649C47.466 35.0649 47.446 35.0539 47.446 35.0199C47.446 34.9859 47.489 34.9879 47.556 34.9879C47.774 34.9879 48.005 34.9879 48.097 34.9879C48.144 34.9879 48.306 34.9879 48.514 34.9819C48.572 34.9819 48.614 34.9819 48.614 35.0129C48.614 35.0439 48.584 35.0579 48.538 35.0589C48.4941 35.0571 48.4502 35.0625 48.408 35.075C48.292 35.113 48.255 35.183 48.255 35.42L48.218 38.0199C48.218 38.1119 48.183 38.1509 48.15 38.1509C48.1164 38.1492 48.0834 38.1407 48.053 38.1262C48.0226 38.1116 47.9954 38.0911 47.973 38.0659C47.706 37.8169 47.173 37.3109 46.72 36.8799C46.252 36.4359 45.8 35.9379 45.72 35.8689H45.706L45.757 37.549Z" fill="#838484"/>
<path d="M49.566 36.17C49.566 35.549 49.566 35.426 49.559 35.296C49.552 35.166 49.511 35.113 49.368 35.073C49.3127 35.064 49.2569 35.059 49.201 35.058C49.158 35.058 49.124 35.047 49.124 35.013C49.124 34.979 49.161 34.981 49.224 34.981C49.443 34.981 49.718 34.981 49.839 34.981C49.96 34.981 50.92 34.981 51 34.975C51.0619 34.9716 51.1234 34.9632 51.184 34.95C51.206 34.95 51.231 34.93 51.248 34.93C51.265 34.93 51.278 34.95 51.278 34.971C51.2598 35.0586 51.2491 35.1476 51.246 35.237C51.2423 35.3298 51.2329 35.4223 51.218 35.514C51.218 35.526 51.209 35.582 51.173 35.582C51.137 35.582 51.14 35.559 51.14 35.523C51.1372 35.472 51.1278 35.4216 51.112 35.373C51.079 35.301 51.043 35.241 50.829 35.223C50.757 35.214 50.25 35.212 50.164 35.213C50.14 35.213 50.129 35.223 50.129 35.244V36.266C50.129 36.289 50.138 36.309 50.165 36.309C50.258 36.309 50.807 36.309 50.908 36.299C50.9791 36.2955 51.0481 36.2735 51.108 36.235C51.144 36.202 51.158 36.179 51.17 36.179C51.182 36.179 51.207 36.198 51.207 36.221C51.207 36.244 51.2 36.314 51.171 36.521C51.171 36.603 51.16 36.767 51.16 36.8C51.16 36.833 51.16 36.888 51.115 36.888C51.07 36.888 51.078 36.873 51.078 36.856C51.078 36.811 51.072 36.756 51.062 36.703C51.036 36.627 50.983 36.562 50.826 36.547C50.747 36.541 50.257 36.53 50.149 36.531C50.134 36.531 50.127 36.55 50.127 36.572V36.905C50.127 37.046 50.127 37.395 50.127 37.516C50.141 37.797 50.271 37.859 50.71 37.856C50.8453 37.8612 50.9805 37.8436 51.11 37.804C51.215 37.752 51.257 37.665 51.291 37.504C51.298 37.461 51.313 37.437 51.338 37.437C51.363 37.437 51.379 37.489 51.38 37.537C51.3741 37.6899 51.356 37.842 51.326 37.992C51.294 38.1 51.255 38.1 51.095 38.1C50.779 38.1 50.519 38.1 50.31 38.089C50.101 38.078 49.94 38.083 49.81 38.089C49.763 38.089 49.67 38.089 49.566 38.089C49.462 38.089 49.358 38.1 49.271 38.1C49.221 38.1 49.189 38.088 49.189 38.058C49.189 38.028 49.2 38.015 49.261 38.013C49.3098 38.0137 49.3585 38.0083 49.406 37.997C49.491 37.98 49.521 37.897 49.529 37.78C49.5512 37.4886 49.5582 37.1962 49.55 36.904L49.566 36.17Z" fill="#838484"/>
<path d="M52.135 38.029C52.071 38.002 52.052 37.981 52.052 37.892C52.052 37.665 52.073 37.412 52.077 37.344C52.081 37.276 52.094 37.238 52.126 37.238C52.158 37.238 52.169 37.273 52.169 37.304C52.1752 37.3769 52.1893 37.449 52.211 37.519C52.2664 37.6504 52.3629 37.7604 52.486 37.8325C52.6091 37.9046 52.7522 37.9349 52.894 37.919C52.9681 37.9271 53.043 37.9196 53.114 37.8968C53.1849 37.874 53.2503 37.8366 53.3057 37.7868C53.3612 37.7371 53.4056 37.6762 53.436 37.6082C53.4663 37.5402 53.482 37.4665 53.482 37.392C53.482 37.215 53.435 37.037 53.061 36.815L52.812 36.666C52.312 36.373 52.142 36.1 52.141 35.733C52.141 35.233 52.615 34.902 53.209 34.9C53.4144 34.8981 53.6193 34.9192 53.82 34.963C53.856 34.979 53.874 34.988 53.874 35.024C53.874 35.06 53.863 35.187 53.864 35.513C53.864 35.6 53.843 35.644 53.807 35.644C53.771 35.644 53.764 35.619 53.764 35.573C53.7592 35.4714 53.7208 35.3744 53.655 35.297C53.5938 35.2328 53.519 35.1831 53.4361 35.1516C53.3533 35.1202 53.2644 35.1076 53.176 35.115C52.876 35.115 52.594 35.272 52.596 35.553C52.596 35.736 52.67 35.88 53.051 36.096L53.225 36.19C53.789 36.496 53.965 36.814 53.966 37.19C53.9691 37.3446 53.9319 37.4973 53.8581 37.6332C53.7843 37.7691 53.6764 37.8834 53.545 37.965C53.3276 38.093 53.0769 38.1532 52.825 38.138C52.5901 38.147 52.3557 38.11 52.135 38.029Z" fill="#838484"/>
<path d="M56.818 35.909C56.6555 35.7146 56.5667 35.4693 56.567 35.216C56.567 34.837 56.897 34.332 57.737 34.329C57.9384 34.325 58.1389 34.3554 58.33 34.419C58.412 34.447 58.412 34.487 58.412 34.545C58.4086 34.7529 58.3909 34.9604 58.359 35.166C58.35 35.244 58.334 35.249 58.302 35.249C58.27 35.249 58.267 35.229 58.267 35.159C58.2687 35.0107 58.2189 34.8665 58.126 34.751C58.0587 34.6772 57.9757 34.6194 57.8831 34.5819C57.7905 34.5443 57.6907 34.528 57.591 34.534C57.519 34.5342 57.4478 34.5492 57.3819 34.5781C57.3159 34.607 57.2566 34.6492 57.2077 34.702C57.1587 34.7548 57.1211 34.8171 57.0973 34.8851C57.0734 34.953 57.0638 35.0251 57.069 35.097C57.069 35.546 57.487 35.931 57.882 36.362C58.048 36.555 58.642 37.086 58.74 37.17C58.8832 36.9463 58.9618 36.6875 58.967 36.422C58.9696 36.3809 58.9628 36.3398 58.9472 36.3017C58.9316 36.2636 58.9076 36.2295 58.877 36.202C58.8093 36.1476 58.7237 36.1206 58.637 36.126C58.607 36.126 58.583 36.116 58.583 36.091C58.583 36.05 58.614 36.037 58.655 36.037C58.771 36.037 58.967 36.046 59.244 36.072C59.333 36.072 59.406 36.113 59.407 36.166C59.3816 36.5918 59.2152 36.9971 58.934 37.318C59.1466 37.4952 59.3741 37.6538 59.614 37.792C59.7728 37.8783 59.946 37.9352 60.125 37.96C60.17 37.96 60.199 37.96 60.199 38.003C60.199 38.046 60.162 38.046 60.054 38.046H59.683C59.4754 38.0699 59.2651 38.0493 59.0661 37.9855C58.8671 37.9217 58.684 37.8162 58.529 37.676C58.3793 37.826 58.2003 37.9435 58.0031 38.0213C57.8059 38.0991 57.5948 38.1354 57.383 38.128C56.346 38.128 56.029 37.482 56.028 37.061C56.0495 36.8172 56.1336 36.5832 56.2719 36.3814C56.4103 36.1796 56.5984 36.0169 56.818 35.909ZM58.343 37.524C58.06 37.284 57.583 36.831 57.463 36.695C57.279 36.5021 57.1051 36.2998 56.942 36.089C56.8315 36.1768 56.7438 36.2901 56.6863 36.4191C56.6289 36.5481 56.6034 36.689 56.612 36.83C56.6034 36.958 56.6211 37.0864 56.6642 37.2072C56.7072 37.3281 56.7746 37.4388 56.8621 37.5325C56.9497 37.6263 57.0556 37.7011 57.1732 37.7522C57.2908 37.8034 57.4177 37.8298 57.546 37.83C57.839 37.8229 58.1206 37.7148 58.343 37.524Z" fill="#838484"/>
<path d="M62.023 35.775C62.023 35.037 62.023 34.902 62.006 34.748C61.989 34.594 61.96 34.507 61.796 34.471C61.7352 34.4653 61.6741 34.4633 61.613 34.465C61.552 34.465 61.528 34.451 61.528 34.422C61.528 34.393 61.566 34.377 61.628 34.377C61.898 34.377 62.2 34.383 62.328 34.383C62.528 34.383 62.812 34.372 63.037 34.371C63.1973 34.3509 63.3599 34.3642 63.5148 34.4099C63.6697 34.4557 63.8134 34.533 63.937 34.637C64.0926 34.7911 64.182 34.9999 64.186 35.219C64.1906 35.3758 64.1627 35.532 64.1043 35.6777C64.0458 35.8233 63.958 35.9554 63.8462 36.0656C63.7345 36.1759 63.6013 36.2619 63.4548 36.3184C63.3084 36.3749 63.1518 36.4006 62.995 36.394C62.976 36.394 62.916 36.394 62.895 36.394C62.874 36.394 62.832 36.3819 62.832 36.3479C62.832 36.3139 62.865 36.297 62.973 36.297C63.1617 36.2672 63.3326 36.1681 63.452 36.019C63.5715 35.8699 63.6311 35.6816 63.619 35.491C63.6252 35.3562 63.6023 35.2218 63.5519 35.0967C63.5016 34.9716 63.4248 34.8588 63.327 34.7659C63.1953 34.6447 63.023 34.5773 62.844 34.577C62.7793 34.5732 62.7144 34.5803 62.652 34.5979C62.627 34.6049 62.611 34.636 62.611 34.69L62.62 36.632C62.62 37.081 62.62 37.464 62.652 37.675C62.666 37.806 62.697 37.916 62.838 37.937C62.912 37.937 63.017 37.951 63.087 37.951C63.157 37.951 63.164 37.9629 63.164 37.9879C63.164 38.0129 63.137 38.038 63.077 38.038C62.754 38.038 62.451 38.028 62.324 38.028C62.215 38.028 61.913 38.0429 61.711 38.0439C61.643 38.0439 61.611 38.032 61.611 37.996C61.611 37.96 61.636 37.9579 61.689 37.9579C61.749 37.9565 61.8088 37.9512 61.868 37.942C61.961 37.92 61.987 37.8099 62.004 37.6669C62.029 37.4669 62.028 37.084 62.025 36.635L62.023 35.775Z" fill="#838484"/>
<path d="M64.956 36.984C64.928 36.984 64.925 36.984 64.92 37.011L64.697 37.574C64.6603 37.6522 64.6373 37.736 64.629 37.822C64.629 37.896 64.674 37.94 64.799 37.94H64.867C64.92 37.94 64.928 37.959 64.928 37.983C64.928 38.007 64.906 38.026 64.865 38.026C64.716 38.026 64.518 38.014 64.385 38.015C64.343 38.015 64.113 38.03 63.891 38.03C63.839 38.03 63.813 38.02 63.813 37.988C63.813 37.956 63.823 37.943 63.86 37.943C63.897 37.943 63.947 37.937 63.985 37.936C64.185 37.909 64.255 37.781 64.34 37.577L65.44 34.994C65.487 34.871 65.522 34.824 65.564 34.824C65.633 34.824 65.652 34.862 65.695 34.953C65.795 35.188 66.514 36.853 66.795 37.478C66.961 37.849 67.085 37.901 67.16 37.914C67.2145 37.923 67.2697 37.928 67.325 37.929C67.361 37.929 67.381 37.941 67.381 37.972C67.381 38.003 67.351 38.015 67.2 38.017C67.049 38.019 66.733 38.017 66.377 38.01C66.299 38.01 66.243 38.01 66.243 37.978C66.243 37.946 66.26 37.94 66.302 37.935C66.3206 37.927 66.3353 37.9121 66.343 37.8934C66.3506 37.8747 66.3507 37.8537 66.343 37.835L66.009 37.003C65.993 36.977 65.981 36.976 65.966 36.976L64.956 36.984ZM65.868 36.75C65.89 36.75 65.893 36.739 65.89 36.725L65.483 35.694C65.477 35.678 65.473 35.654 65.464 35.654C65.455 35.654 65.442 35.678 65.44 35.694L65.029 36.726C65.018 36.742 65.029 36.753 65.041 36.752L65.868 36.75Z" fill="#838484"/>
<path d="M67.836 36.0849C67.836 35.4619 67.836 35.3409 67.829 35.2109C67.822 35.0809 67.778 35.0279 67.646 34.9879C67.5897 34.9794 67.5329 34.9744 67.476 34.9729C67.43 34.9729 67.402 34.9609 67.402 34.9279C67.402 34.8949 67.437 34.8959 67.502 34.8959C67.725 34.8959 67.995 34.8959 68.081 34.8959C68.228 34.8959 68.616 34.8899 68.749 34.8899C69.0288 34.8674 69.3091 34.9265 69.556 35.0599C69.6484 35.1235 69.7245 35.2079 69.778 35.3065C69.8315 35.405 69.861 35.5148 69.864 35.6269C69.864 35.9329 69.687 36.2009 69.264 36.5379C69.649 37.0049 69.955 37.3769 70.208 37.6379C70.327 37.7732 70.4866 37.8662 70.663 37.9029C70.6983 37.9115 70.7346 37.9152 70.771 37.9139C70.7835 37.9133 70.7957 37.9174 70.8053 37.9254C70.815 37.9333 70.8213 37.9446 70.823 37.9569C70.823 37.9889 70.795 37.9999 70.74 37.9999H70.33C70.1718 38.0127 70.0129 37.9855 69.868 37.9209C69.6282 37.767 69.4273 37.5595 69.281 37.3149C69.11 37.0959 68.928 36.8149 68.875 36.7559C68.865 36.7454 68.8529 36.7372 68.8394 36.7319C68.8259 36.7265 68.8115 36.7242 68.797 36.7249L68.415 36.7189C68.394 36.7189 68.38 36.7279 68.38 36.7519V36.8149C68.38 37.1939 68.394 37.5149 68.407 37.6909C68.428 37.8069 68.442 37.8909 68.57 37.9059C68.6407 37.9148 68.7118 37.9198 68.783 37.9209C68.7959 37.9202 68.8087 37.9241 68.819 37.932C68.8293 37.9399 68.8364 37.9512 68.839 37.9639C68.839 37.9939 68.803 38.0069 68.739 38.0069C68.503 38.0069 68.139 37.9959 68.081 37.9969C67.997 37.9969 67.727 38.0119 67.562 38.0119C67.504 38.0119 67.477 37.9999 67.477 37.9699C67.477 37.9399 67.488 37.9249 67.54 37.9249C67.5914 37.9252 67.6427 37.9199 67.693 37.9089C67.778 37.8899 67.806 37.8089 67.818 37.6919C67.833 37.5159 67.832 37.1919 67.83 36.8159L67.836 36.0849ZM68.383 36.4029C68.383 36.4489 68.395 36.4649 68.428 36.4749C68.5298 36.5048 68.6359 36.5176 68.742 36.5129C68.8488 36.5275 68.9574 36.5034 69.048 36.4449C69.1421 36.3742 69.2168 36.2808 69.2652 36.1734C69.3136 36.0661 69.3342 35.9483 69.325 35.8309C69.3367 35.7385 69.3285 35.6446 69.3008 35.5556C69.2732 35.4666 69.2267 35.3846 69.1646 35.3151C69.1025 35.2456 69.0262 35.1903 68.9409 35.1528C68.8556 35.1153 68.7632 35.0966 68.67 35.0979C68.5866 35.0984 68.5034 35.1047 68.421 35.1169C68.389 35.1319 68.376 35.1419 68.376 35.1759L68.383 36.4029Z" fill="#838484"/>
<path d="M71.17 36.0709C71.17 35.4479 71.17 35.327 71.164 35.197C71.1671 35.1428 71.1494 35.0895 71.1144 35.048C71.0795 35.0065 71.0299 34.98 70.976 34.9739C70.9197 34.9655 70.8629 34.9605 70.806 34.9589C70.761 34.9589 70.73 34.948 70.73 34.914C70.73 34.88 70.766 34.882 70.83 34.882C71.048 34.882 71.32 34.882 71.409 34.882C71.55 34.882 71.944 34.8749 72.074 34.8749C72.3553 34.853 72.637 34.912 72.886 35.0449C72.9771 35.1092 73.0518 35.194 73.1039 35.2925C73.156 35.391 73.1841 35.5005 73.186 35.6119C73.186 35.9179 73.016 36.188 72.598 36.523C72.98 36.991 73.281 37.362 73.536 37.623C73.655 37.7597 73.8161 37.8529 73.994 37.8879C74.0267 37.8961 74.0603 37.8998 74.094 37.899C74.1066 37.8978 74.1191 37.9017 74.1288 37.9098C74.1385 37.9178 74.1447 37.9294 74.146 37.942C74.146 37.974 74.122 37.985 74.064 37.985H73.654C73.4957 37.9966 73.3371 37.9691 73.192 37.9049C72.9554 37.7481 72.7557 37.5417 72.607 37.3C72.437 37.08 72.252 36.7999 72.207 36.7389C72.1962 36.7283 72.1834 36.7201 72.1693 36.7148C72.1551 36.7094 72.1401 36.7071 72.125 36.708L71.744 36.702C71.723 36.702 71.709 36.7109 71.709 36.7349V36.798C71.709 37.177 71.715 37.498 71.733 37.674C71.754 37.79 71.77 37.874 71.905 37.889C71.973 37.898 72.0414 37.903 72.11 37.904C72.15 37.904 72.164 37.93 72.164 37.947C72.164 37.964 72.128 37.99 72.079 37.99C71.833 37.99 71.474 37.98 71.413 37.98C71.33 37.98 71.059 37.995 70.889 37.995C70.84 37.995 70.807 37.983 70.807 37.953C70.807 37.923 70.817 37.908 70.868 37.908C70.9194 37.9086 70.9708 37.9032 71.021 37.8919C71.109 37.8729 71.132 37.792 71.147 37.675C71.168 37.501 71.167 37.175 71.164 36.799L71.17 36.0709ZM71.713 36.3899C71.713 36.4349 71.722 36.4509 71.754 36.4609C71.8592 36.4909 71.9686 36.5038 72.078 36.499C72.1829 36.5127 72.2892 36.4886 72.378 36.4309C72.4719 36.36 72.5464 36.2666 72.5946 36.1593C72.6429 36.052 72.6633 35.9342 72.654 35.817C72.6659 35.7247 72.6578 35.631 72.6304 35.5422C72.603 35.4533 72.5568 35.3714 72.495 35.3019C72.4332 35.2324 72.3572 35.177 72.2721 35.1394C72.1871 35.1018 72.095 35.0829 72.002 35.0839C71.918 35.0845 71.8341 35.0909 71.751 35.1029C71.719 35.1179 71.71 35.128 71.71 35.162L71.713 36.3899Z" fill="#838484"/>
<path d="M74.501 36.057C74.501 35.436 74.501 35.313 74.492 35.183C74.483 35.053 74.435 34.999 74.343 34.965C74.2915 34.9529 74.2389 34.9462 74.186 34.945C74.144 34.945 74.122 34.938 74.122 34.898C74.122 34.858 74.154 34.868 74.222 34.868C74.383 34.868 74.675 34.868 74.796 34.868C74.917 34.868 75.181 34.862 75.348 34.861C75.4 34.861 75.433 34.861 75.433 34.891C75.433 34.921 75.408 34.938 75.365 34.938C75.323 34.9406 75.2813 34.9459 75.24 34.954C75.121 34.975 75.089 35.036 75.078 35.178C75.067 35.32 75.078 35.431 75.078 36.052V36.785C75.078 37.18 75.078 37.509 75.098 37.685C75.115 37.794 75.14 37.858 75.268 37.876C75.3416 37.8855 75.4158 37.8905 75.49 37.891C75.538 37.891 75.553 37.917 75.554 37.934C75.555 37.951 75.524 37.977 75.475 37.977C75.194 37.977 74.901 37.966 74.783 37.967C74.683 37.967 74.394 37.982 74.227 37.983C74.174 37.983 74.144 37.969 74.144 37.94C74.144 37.911 74.156 37.897 74.213 37.895C74.2625 37.8957 74.3119 37.8903 74.36 37.879C74.447 37.862 74.471 37.8 74.489 37.679C74.506 37.507 74.505 37.179 74.503 36.779L74.501 36.057Z" fill="#838484"/>
<path d="M77.053 36.777C77.053 37.304 77.053 37.563 77.145 37.641C77.3228 37.7226 77.5202 37.7517 77.714 37.725C77.947 37.725 78.114 37.725 78.214 37.607C78.2738 37.5374 78.312 37.4519 78.324 37.361C78.324 37.32 78.335 37.298 78.367 37.298C78.399 37.298 78.409 37.341 78.41 37.388C78.4004 37.5477 78.379 37.7064 78.346 37.863C78.319 37.955 78.297 37.974 78.077 37.976C77.77 37.976 77.52 37.976 77.308 37.964C77.096 37.952 76.918 37.964 76.741 37.964C76.691 37.964 76.6 37.964 76.497 37.964C76.394 37.964 76.285 37.975 76.197 37.975C76.15 37.975 76.115 37.963 76.115 37.933C76.115 37.903 76.132 37.89 76.186 37.888C76.2358 37.8888 76.2855 37.8834 76.334 37.872C76.423 37.855 76.443 37.772 76.464 37.655C76.476 37.481 76.475 37.155 76.474 36.779V36.046C76.474 35.425 76.474 35.302 76.474 35.172C76.474 35.042 76.425 34.989 76.283 34.949C76.2381 34.9405 76.1926 34.9355 76.147 34.934C76.1 34.934 76.071 34.922 76.071 34.889C76.071 34.856 76.102 34.857 76.164 34.857C76.364 34.857 76.636 34.857 76.753 34.857C76.853 34.857 77.205 34.85 77.369 34.85C77.43 34.85 77.461 34.85 77.461 34.881C77.461 34.912 77.436 34.927 77.382 34.927C77.3267 34.9293 77.2716 34.9346 77.217 34.943C77.102 34.964 77.07 35.025 77.059 35.167C77.048 35.309 77.052 35.42 77.059 36.041L77.053 36.777Z" fill="#838484"/>
<path d="M79.729 36.765C79.729 37.292 79.729 37.551 79.829 37.629C79.897 37.692 80.06 37.716 80.397 37.714C80.624 37.714 80.787 37.708 80.897 37.595C80.9519 37.5235 80.9864 37.4385 80.997 37.349C80.997 37.308 81.017 37.287 81.048 37.287C81.079 37.287 81.085 37.329 81.085 37.377C81.0786 37.5367 81.0588 37.6956 81.026 37.852C80.998 37.944 80.98 37.963 80.754 37.965C80.454 37.965 80.203 37.965 79.985 37.953C79.767 37.941 79.593 37.953 79.419 37.953C79.371 37.953 79.275 37.953 79.176 37.953C79.077 37.953 78.969 37.965 78.876 37.965C78.822 37.965 78.793 37.951 78.793 37.922C78.793 37.893 78.809 37.879 78.86 37.879C78.9108 37.8794 78.9614 37.8741 79.011 37.863C79.096 37.844 79.122 37.763 79.139 37.645C79.158 37.47 79.156 37.145 79.155 36.769V36.036C79.155 35.415 79.155 35.293 79.14 35.162C79.125 35.031 79.095 34.98 78.958 34.94C78.9123 34.9303 78.8657 34.9253 78.819 34.925C78.767 34.925 78.743 34.913 78.743 34.879C78.743 34.845 78.773 34.848 78.836 34.848C79.036 34.848 79.303 34.848 79.421 34.848C79.539 34.848 79.873 34.842 80.04 34.841C80.103 34.841 80.133 34.841 80.133 34.872C80.133 34.903 80.111 34.918 80.055 34.918C80.0007 34.9203 79.9466 34.926 79.893 34.935C79.774 34.955 79.742 35.017 79.732 35.158C79.722 35.299 79.718 35.41 79.721 36.032L79.729 36.765Z" fill="#838484"/>
<path d="M82.124 36.908C82.097 36.908 82.093 36.908 82.086 36.935L81.855 37.499C81.8215 37.5777 81.8015 37.6616 81.796 37.747C81.796 37.82 81.834 37.865 81.968 37.865H82.031C82.085 37.865 82.097 37.884 82.097 37.91C82.097 37.936 82.069 37.953 82.025 37.953C81.886 37.953 81.686 37.941 81.551 37.942C81.51 37.942 81.279 37.956 81.051 37.957C80.999 37.957 80.978 37.947 80.978 37.915C80.978 37.883 80.989 37.87 81.025 37.87C81.061 37.87 81.11 37.863 81.15 37.863C81.342 37.836 81.415 37.708 81.504 37.503L82.604 34.92C82.651 34.799 82.689 34.752 82.732 34.75C82.791 34.75 82.814 34.79 82.856 34.88C82.956 35.115 83.684 36.78 83.956 37.404C84.124 37.777 84.242 37.827 84.319 37.841C84.373 37.8494 84.4274 37.8544 84.482 37.856C84.519 37.856 84.541 37.868 84.541 37.899C84.541 37.93 84.517 37.942 84.357 37.942C84.197 37.942 83.898 37.942 83.535 37.936C83.457 37.936 83.409 37.936 83.409 37.904C83.409 37.872 83.419 37.866 83.462 37.859C83.4715 37.8564 83.4802 37.8517 83.4875 37.8451C83.4948 37.8386 83.5005 37.8304 83.5041 37.8213C83.5077 37.8121 83.5091 37.8023 83.5082 37.7925C83.5074 37.7828 83.5042 37.7733 83.499 37.765L83.167 36.933C83.157 36.907 83.143 36.906 83.122 36.906L82.124 36.908ZM83.034 36.674C83.05 36.674 83.06 36.663 83.05 36.65L82.65 35.618C82.65 35.603 82.639 35.58 82.629 35.58C82.619 35.58 82.615 35.603 82.604 35.62L82.198 36.651C82.186 36.667 82.198 36.678 82.214 36.678L83.034 36.674Z" fill="#838484"/>
</g>
<defs>
<clipPath id="clip0_48_289">
<rect width="119.041" height="46.295" fill="white"/>
</clipPath>
</defs>
</svg>
