<svg width="128" height="132" viewBox="0 0 128 132" fill="none" xmlns="http://www.w3.org/2000/svg">
<path d="M73.5338 77.107C67.53 77.7542 64.8216 76.8439 61 73.2281C65.2836 75.1832 67.6829 75.3975 71.967 73.2281C75.8733 69.6541 76.5428 67.0551 75.6227 61.5914C72.2925 60.7182 71.466 59.8938 71.967 57.7125C72.368 53.9237 72.8382 51.7743 75.6227 47.7382C78.0454 43.9557 79.6851 45.0643 81.3673 47.7382C85.3488 54.2988 85.792 58.8519 83.9785 68.2409C81.4842 72.8678 79.2671 74.8604 73.5338 77.107Z" fill="#5DB183" stroke="white"/>
<path fill-rule="evenodd" clip-rule="evenodd" d="M54 36.9124C53.3383 37.1764 52.6895 37.4658 52.0548 37.7794L47.2367 34.7369C42.9695 37.3663 39.3662 40.9695 36.7369 45.2367L39.7794 50.0549C39.2598 51.1065 38.8066 52.1968 38.4254 53.3203L32.8656 54.5762C32.2996 56.9587 32 59.4444 32 62C32 64.5557 32.2996 67.0414 32.8656 69.4239L38.4254 70.6797C38.8066 71.8033 39.2598 72.8936 39.7794 73.9452L36.7369 78.7633C39.3662 83.0306 42.9695 86.6338 47.2367 89.2632L52.0548 86.2206C53.1064 86.7403 54.1968 87.1934 55.3203 87.5746L56.5762 93.1345C58.9587 93.7004 61.4444 94 64 94C66.5556 94 69.0413 93.7004 71.4238 93.1345L72.6797 87.5746C73.8032 87.1934 74.8936 86.7403 75.9452 86.2206L80.7633 89.2632C85.0305 86.6338 88.6338 83.0306 91.2631 78.7633L88.2206 73.9452C88.7402 72.8936 89.1934 71.8033 89.5746 70.6797L95.1344 69.4239C95.7004 67.0414 96 64.5557 96 62C96 59.4444 95.7004 56.9587 95.1344 54.5762L89.5746 53.3203C89.1934 52.1968 88.7402 51.1065 88.2206 50.0549L91.2631 45.2367C88.6338 40.9695 85.0305 37.3663 80.7633 34.7369L75.9452 37.7794C75.3105 37.4658 74.6617 37.1764 74 36.9124V40.1762C82.2621 43.9682 88 52.314 88 62C88 75.2549 77.2548 86 64 86C50.7452 86 40 75.2549 40 62C40 52.314 45.7379 43.9682 54 40.1762V36.9124Z" fill="#595D59"/>
<path d="M43.8875 49.4259C38.4058 62.7224 39.9182 78.2378 55.5238 83.2502C62.0545 85.3478 66.9252 85.8075 73.2554 83.2502C80.7334 80.2291 85.0518 73.7884 86 68.105C80.0185 74.9324 76.5237 79.165 68.8225 77.6969C62.0679 76.4093 58.9432 72.9258 57.1862 65.5808C56.4257 54.9262 63.8356 50.4356 68.8225 35.7952C73.8095 21.1549 69.6053 15.1392 64.3896 5C62.5659 17.0534 60.9355 22.6065 55.5238 32.7662C51.8284 39.704 46.8637 42.2067 43.8875 49.4259Z" fill="#6DBB72" stroke="white" stroke-width="2"/>
<path d="M53.6882 105.492H50.8885C50.8374 105.13 50.733 104.808 50.5753 104.527C50.4176 104.241 50.2152 103.999 49.968 103.798C49.7209 103.598 49.4354 103.445 49.1115 103.338C48.7919 103.232 48.4446 103.178 48.0696 103.178C47.392 103.178 46.8018 103.347 46.299 103.683C45.7962 104.016 45.4063 104.501 45.1293 105.141C44.8523 105.776 44.7138 106.547 44.7138 107.455C44.7138 108.388 44.8523 109.172 45.1293 109.807C45.4105 110.442 45.8026 110.921 46.3054 111.245C46.8082 111.569 47.3899 111.731 48.0504 111.731C48.4212 111.731 48.7642 111.682 49.0795 111.584C49.3991 111.486 49.6825 111.343 49.9297 111.156C50.1768 110.964 50.3814 110.732 50.5433 110.459C50.7095 110.186 50.8246 109.875 50.8885 109.526L53.6882 109.538C53.6158 110.139 53.4347 110.719 53.1449 111.277C52.8594 111.831 52.4737 112.327 51.9879 112.766C51.5064 113.201 50.9311 113.546 50.2621 113.802C49.5973 114.053 48.8452 114.179 48.0057 114.179C46.8381 114.179 45.794 113.915 44.8736 113.386C43.9574 112.858 43.233 112.093 42.7003 111.092C42.1719 110.09 41.9077 108.878 41.9077 107.455C41.9077 106.027 42.1761 104.812 42.7131 103.811C43.25 102.81 43.9787 102.047 44.8991 101.523C45.8196 100.994 46.8551 100.73 48.0057 100.73C48.7642 100.73 49.4673 100.837 50.1151 101.05C50.767 101.263 51.3445 101.574 51.8473 101.983C52.3501 102.388 52.7592 102.884 53.0746 103.472C53.3942 104.06 53.5987 104.734 53.6882 105.492ZM59.636 114.192C58.7326 114.192 57.9528 114.03 57.2965 113.706C56.6403 113.382 56.1353 112.943 55.7816 112.389C55.4322 111.831 55.2575 111.209 55.2575 110.523C55.2575 110.011 55.3597 109.558 55.5643 109.161C55.7688 108.765 56.0543 108.401 56.4208 108.068C56.7873 107.732 57.2134 107.397 57.6992 107.065L60.2369 105.396C60.565 105.187 60.8058 104.968 60.9592 104.738C61.1126 104.504 61.1893 104.25 61.1893 103.977C61.1893 103.717 61.0849 103.477 60.8761 103.255C60.6673 103.033 60.3711 102.925 59.9876 102.929C59.7319 102.929 59.5103 102.987 59.3228 103.102C59.1353 103.212 58.9883 103.359 58.8817 103.543C58.7795 103.722 58.7283 103.922 58.7283 104.143C58.7283 104.416 58.805 104.693 58.9585 104.974C59.1119 105.256 59.3164 105.554 59.5721 105.869C59.8278 106.18 60.1069 106.517 60.4094 106.879L66.6161 114H63.7781L58.6005 108.234C58.2596 107.847 57.9187 107.442 57.5778 107.02C57.2411 106.594 56.9599 106.142 56.734 105.665C56.5082 105.183 56.3952 104.661 56.3952 104.099C56.3952 103.464 56.5423 102.893 56.8363 102.386C57.1346 101.879 57.5522 101.478 58.0891 101.184C58.6261 100.886 59.2525 100.737 59.9684 100.737C60.6673 100.737 61.2702 100.879 61.7773 101.165C62.2887 101.446 62.6808 101.821 62.9535 102.29C63.2305 102.754 63.369 103.266 63.369 103.824C63.369 104.442 63.2156 105.002 62.9087 105.505C62.6062 106.004 62.18 106.451 61.6303 106.847L58.9585 108.771C58.5962 109.036 58.3278 109.306 58.1531 109.583C57.9826 109.856 57.8974 110.118 57.8974 110.369C57.8974 110.68 57.9741 110.96 58.1275 111.207C58.2809 111.454 58.4982 111.65 58.7795 111.795C59.0607 111.935 59.391 112.006 59.7702 112.006C60.2305 112.006 60.6843 111.901 61.1317 111.692C61.5835 111.479 61.9925 111.179 62.359 110.791C62.7298 110.399 63.0259 109.935 63.2475 109.398C63.4691 108.861 63.5799 108.266 63.5799 107.614H65.8363C65.8363 108.415 65.7489 109.138 65.5742 109.781C65.3995 110.42 65.1566 110.979 64.8455 111.456C64.5344 111.929 64.1786 112.317 63.7781 112.619C63.6502 112.7 63.5266 112.777 63.4073 112.849C63.288 112.922 63.1644 112.999 63.0366 113.08C62.5508 113.472 62.0075 113.755 61.4066 113.93C60.81 114.104 60.2198 114.192 59.636 114.192ZM70.0279 114L66.2821 100.909H69.3056L71.4725 110.005H71.5811L73.9718 100.909H76.5605L78.9448 110.024H79.0598L81.2267 100.909H84.2502L80.5044 114H77.807L75.3141 105.441H75.2118L72.7253 114H70.0279Z" fill="black"/>
</svg>
