<svg width="128" height="128" viewBox="0 0 128 128" fill="none" xmlns="http://www.w3.org/2000/svg">
<rect width="128" height="128" fill="white"/>
<path fill-rule="evenodd" clip-rule="evenodd" d="M49.4155 34C57.4557 22.16 58.691 15.0023 59.4155 2C64.0483 9.38531 65.992 14.6586 64.5528 30.5541L65.1512 33.2029C67.9249 33.8618 70.5298 34.9565 72.8896 36.4105L77.9524 33.2135C80.5603 35.1335 82.8665 37.4397 84.7865 40.0476L81.5895 45.1104C83.0435 47.4702 84.1382 50.0751 84.7971 52.8488L90.6376 54.1681C90.8763 55.744 91 57.3575 91 59C91 60.6425 90.8763 62.256 90.6376 63.8319L84.7971 65.1512C84.1382 67.9249 83.0435 70.5298 81.5895 72.8896L84.7865 77.9524C82.8665 80.5603 80.5603 82.8665 77.9524 84.7865L72.8896 81.5895C70.5298 83.0435 67.9249 84.1382 65.1512 84.7971L63.8319 90.6376C62.256 90.8763 60.6425 91 59 91C57.3575 91 55.744 90.8763 54.1681 90.6376L52.8488 84.7971C50.0752 84.1382 47.4702 83.0435 45.1104 81.5895L40.0476 84.7865C37.4397 82.8665 35.1335 80.5603 33.2135 77.9524L36.4105 72.8896C34.9565 70.5298 33.8618 67.9249 33.2029 65.1512L27.3624 63.8319C27.1237 62.256 27 60.6425 27 59C27 57.3575 27.1237 55.744 27.3624 54.1681L33.2029 52.8488C33.8618 50.0751 34.9565 47.4702 36.4105 45.1104L33.2135 40.0476C35.1335 37.4397 37.4397 35.1335 40.0476 33.2135L45.1104 36.4105C46.3686 35.6353 47.6964 34.9622 49.0824 34.4028C49.1925 34.2692 49.3036 34.1349 49.4155 34ZM39.4155 65.5C38.1031 53.5718 39.8918 47.0966 44.8927 39.8652C39.0305 44.1944 35.2286 51.1532 35.2286 59C35.2286 72.1286 45.8714 82.7714 59 82.7714C72.1286 82.7714 82.7714 72.1286 82.7714 59C82.7714 47.3063 74.3278 37.5846 63.2049 35.5993C61.4403 40.375 59.3801 43.9054 55.4155 49.5C52.0067 60.8562 52.5564 66.0287 59.4155 72.5C66.8174 75.4297 71.0819 73.9871 79.4155 65.5C74.6303 75.5238 70.0902 79.1114 57.4155 80.5C47.3003 79.2457 43.2911 76.166 39.4155 65.5ZM70.4155 62C65.4734 67.6296 62.3119 68.5834 57.4155 66.5C60.6158 69.3891 62.4843 70.1929 65.9155 70.5C72.4397 69.9034 74.9667 68.2541 77.9155 63.5C80.4306 54.0093 80.0082 47.8395 74.9155 43C73.158 41.3261 72.173 41.0152 70.4155 43C67.8287 46.2193 67.6148 48.2824 67.4155 52C67.7842 54.0348 68.5987 54.3738 70.4155 54.5C71.1936 55.755 71.4251 56.5205 71.4155 58C71.2969 59.5814 71.1207 60.4598 70.4155 62Z" fill="#37352F"/>
<path fill-rule="evenodd" clip-rule="evenodd" d="M49.4155 34C57.4557 22.16 58.691 15.0023 59.4155 2C64.0483 9.38531 65.992 14.6586 64.5528 30.5541L65.1512 33.2029C67.9249 33.8618 70.5298 34.9565 72.8896 36.4105L77.9524 33.2135C80.5603 35.1335 82.8665 37.4397 84.7865 40.0476L81.5895 45.1104C83.0435 47.4702 84.1382 50.0751 84.7971 52.8488L90.6376 54.1681C90.8763 55.744 91 57.3575 91 59C91 60.6425 90.8763 62.256 90.6376 63.8319L84.7971 65.1512C84.1382 67.9249 83.0435 70.5298 81.5895 72.8896L84.7865 77.9524C82.8665 80.5603 80.5603 82.8665 77.9524 84.7865L72.8896 81.5895C70.5298 83.0435 67.9249 84.1382 65.1512 84.7971L63.8319 90.6376C62.256 90.8763 60.6425 91 59 91C57.3575 91 55.744 90.8763 54.1681 90.6376L52.8488 84.7971C50.0752 84.1382 47.4702 83.0435 45.1104 81.5895L40.0476 84.7865C37.4397 82.8665 35.1335 80.5603 33.2135 77.9524L36.4105 72.8896C34.9565 70.5298 33.8618 67.9249 33.2029 65.1512L27.3624 63.8319C27.1237 62.256 27 60.6425 27 59C27 57.3575 27.1237 55.744 27.3624 54.1681L33.2029 52.8488C33.8618 50.0751 34.9565 47.4702 36.4105 45.1104L33.2135 40.0476C35.1335 37.4397 37.4397 35.1335 40.0476 33.2135L45.1104 36.4105C46.3686 35.6353 47.6964 34.9622 49.0824 34.4028C49.1925 34.2692 49.3036 34.1349 49.4155 34ZM39.4155 65.5C38.1031 53.5718 39.8918 47.0966 44.8927 39.8652C39.0305 44.1944 35.2286 51.1532 35.2286 59C35.2286 72.1286 45.8714 82.7714 59 82.7714C72.1286 82.7714 82.7714 72.1286 82.7714 59C82.7714 47.3063 74.3278 37.5846 63.2049 35.5993C61.4403 40.375 59.3801 43.9054 55.4155 49.5C52.0067 60.8562 52.5564 66.0287 59.4155 72.5C66.8174 75.4297 71.0819 73.9871 79.4155 65.5C74.6303 75.5238 70.0902 79.1114 57.4155 80.5C47.3003 79.2457 43.2911 76.166 39.4155 65.5ZM70.4155 62C65.4734 67.6296 62.3119 68.5834 57.4155 66.5C60.6158 69.3891 62.4843 70.1929 65.9155 70.5C72.4397 69.9034 74.9667 68.2541 77.9155 63.5C80.4306 54.0093 80.0082 47.8395 74.9155 43C73.158 41.3261 72.173 41.0152 70.4155 43C67.8287 46.2193 67.6148 48.2824 67.4155 52C67.7842 54.0348 68.5987 54.3738 70.4155 54.5C71.1936 55.755 71.4251 56.5205 71.4155 58C71.2969 59.5814 71.1207 60.4598 70.4155 62Z" fill="black" fill-opacity="0.2"/>
<path fill-rule="evenodd" clip-rule="evenodd" d="M49.4155 34C57.4557 22.16 58.691 15.0023 59.4155 2C64.0483 9.38531 65.992 14.6586 64.5528 30.5541L65.1512 33.2029C67.9249 33.8618 70.5298 34.9565 72.8896 36.4105L77.9524 33.2135C80.5603 35.1335 82.8665 37.4397 84.7865 40.0476L81.5895 45.1104C83.0435 47.4702 84.1382 50.0751 84.7971 52.8488L90.6376 54.1681C90.8763 55.744 91 57.3575 91 59C91 60.6425 90.8763 62.256 90.6376 63.8319L84.7971 65.1512C84.1382 67.9249 83.0435 70.5298 81.5895 72.8896L84.7865 77.9524C82.8665 80.5603 80.5603 82.8665 77.9524 84.7865L72.8896 81.5895C70.5298 83.0435 67.9249 84.1382 65.1512 84.7971L63.8319 90.6376C62.256 90.8763 60.6425 91 59 91C57.3575 91 55.744 90.8763 54.1681 90.6376L52.8488 84.7971C50.0752 84.1382 47.4702 83.0435 45.1104 81.5895L40.0476 84.7865C37.4397 82.8665 35.1335 80.5603 33.2135 77.9524L36.4105 72.8896C34.9565 70.5298 33.8618 67.9249 33.2029 65.1512L27.3624 63.8319C27.1237 62.256 27 60.6425 27 59C27 57.3575 27.1237 55.744 27.3624 54.1681L33.2029 52.8488C33.8618 50.0751 34.9565 47.4702 36.4105 45.1104L33.2135 40.0476C35.1335 37.4397 37.4397 35.1335 40.0476 33.2135L45.1104 36.4105C46.3686 35.6353 47.6964 34.9622 49.0824 34.4028C49.1925 34.2692 49.3036 34.1349 49.4155 34ZM39.4155 65.5C38.1031 53.5718 39.8918 47.0966 44.8927 39.8652C39.0305 44.1944 35.2286 51.1532 35.2286 59C35.2286 72.1286 45.8714 82.7714 59 82.7714C72.1286 82.7714 82.7714 72.1286 82.7714 59C82.7714 47.3063 74.3278 37.5846 63.2049 35.5993C61.4403 40.375 59.3801 43.9054 55.4155 49.5C52.0067 60.8562 52.5564 66.0287 59.4155 72.5C66.8174 75.4297 71.0819 73.9871 79.4155 65.5C74.6303 75.5238 70.0902 79.1114 57.4155 80.5C47.3003 79.2457 43.2911 76.166 39.4155 65.5ZM70.4155 62C65.4734 67.6296 62.3119 68.5834 57.4155 66.5C60.6158 69.3891 62.4843 70.1929 65.9155 70.5C72.4397 69.9034 74.9667 68.2541 77.9155 63.5C80.4306 54.0093 80.0082 47.8395 74.9155 43C73.158 41.3261 72.173 41.0152 70.4155 43C67.8287 46.2193 67.6148 48.2824 67.4155 52C67.7842 54.0348 68.5987 54.3738 70.4155 54.5C71.1936 55.755 71.4251 56.5205 71.4155 58C71.2969 59.5814 71.1207 60.4598 70.4155 62Z" fill="black" fill-opacity="0.2"/>
</svg>
