<svg width="64" height="93" viewBox="0 0 64 93" fill="none" xmlns="http://www.w3.org/2000/svg">
<path d="M41.5338 76.107C35.53 76.7542 32.8216 75.8439 29 72.2281C33.2836 74.1832 35.6829 74.3975 39.967 72.2281C43.8733 68.6541 44.5428 66.0551 43.6227 60.5914C40.2925 59.7182 39.466 58.8938 39.967 56.7125C40.368 52.9237 40.8382 50.7743 43.6227 46.7382C46.0454 42.9557 47.6851 44.0643 49.3673 46.7382C53.3488 53.2988 53.792 57.8519 51.9785 67.2409C49.4842 71.8678 47.2671 73.8604 41.5338 76.107Z" fill="#595D59" stroke="white"/>
<path fill-rule="evenodd" clip-rule="evenodd" d="M22 35.9124C21.3383 36.1764 20.6895 36.4658 20.0548 36.7794L15.2367 33.7369C10.9695 36.3663 7.36625 39.9695 4.73685 44.2367L7.77938 49.0549C7.25976 50.1065 6.80661 51.1968 6.42542 52.3203L0.865568 53.5762C0.299591 55.9587 0 58.4444 0 61C0 63.5557 0.299591 66.0414 0.865568 68.4239L6.42542 69.6797C6.80661 70.8033 7.25976 71.8936 7.77938 72.9452L4.73685 77.7633C7.36625 82.0306 10.9695 85.6338 15.2367 88.2632L20.0548 85.2206C21.1064 85.7403 22.1968 86.1934 23.3203 86.5746L24.5762 92.1345C26.9587 92.7004 29.4444 93 32 93C34.5556 93 37.0413 92.7004 39.4238 92.1345L40.6797 86.5746C41.8032 86.1934 42.8936 85.7403 43.9452 85.2206L48.7633 88.2632C53.0305 85.6338 56.6338 82.0306 59.2631 77.7633L56.2206 72.9452C56.7402 71.8936 57.1934 70.8033 57.5746 69.6797L63.1344 68.4239C63.7004 66.0414 64 63.5557 64 61C64 58.4444 63.7004 55.9587 63.1344 53.5762L57.5746 52.3203C57.1934 51.1968 56.7402 50.1065 56.2206 49.0549L59.2631 44.2367C56.6338 39.9695 53.0305 36.3663 48.7633 33.7369L43.9452 36.7794C43.3105 36.4658 42.6617 36.1764 42 35.9124V39.1762C50.2621 42.9682 56 51.314 56 61C56 74.2549 45.2548 85 32 85C18.7452 85 8 74.2549 8 61C8 51.314 13.7379 42.9682 22 39.1762V35.9124Z" fill="#595D59"/>
<path d="M11.8875 48.4259C6.40575 61.7224 7.9182 77.2378 23.5238 82.2502C30.0545 84.3478 34.9252 84.8075 41.2554 82.2502C48.7334 79.2291 53.0518 72.7884 54 67.105C48.0185 73.9324 44.5237 78.165 36.8225 76.6969C30.0679 75.4093 26.9432 71.9258 25.1862 64.5808C24.4257 53.9262 31.8356 49.4356 36.8225 34.7952C41.8095 20.1549 37.6053 14.1392 32.3896 4C30.5659 16.0534 28.9355 21.6065 23.5238 31.7662C19.8284 38.704 14.8637 41.2067 11.8875 48.4259Z" fill="#595D59" stroke="white" stroke-width="2"/>
</svg>
