<svg xmlns="http://www.w3.org/2000/svg" width="87.798" height="63.41" viewBox="0 0 87.798 63.41">
  <g id="Logo_Viena" data-name="Logo Viena" transform="translate(-95 -12.048)">
    <g id="Logo" transform="translate(95 12.048)">
      <path id="Trazado_915" data-name="Trazado 915" d="M599.1,280.721c-3.447-.031-7.455-.111-11.754-.123s-8.9-.041-13.479-.054c-4.594.013-9.181.034-13.48.054s-8.318.093-11.761.123-6.312.124-8.317.15c-2.006.05-3.16.08-3.16.08s1.154.027,3.16.083c2.005.03,4.87.107,8.317.144s7.462.107,11.761.124,8.886.037,13.48.053c4.583-.016,9.172-.037,13.479-.053s8.307-.091,11.754-.124,6.3-.114,8.314-.144c2.009-.057,3.159-.083,3.159-.083s-1.15-.03-3.159-.08c-2.009-.027-4.877-.111-8.314-.15" transform="translate(-529.969 -224.852)" fill="#6a1319"/>
      <path id="Trazado_916" data-name="Trazado 916" d="M599.1,202.038c-3.447-.033-7.455-.107-11.754-.121s-8.9-.033-13.479-.053c-4.594.02-9.181.033-13.48.053s-8.318.087-11.761.127-6.312.114-8.317.144l-3.16.08s1.154.027,3.16.081c2.005.037,4.87.11,8.317.143s7.462.114,11.761.131,8.886.033,13.48.053c4.583-.02,9.172-.04,13.479-.053s8.307-.094,11.754-.127,6.3-.11,8.314-.144c2.009-.057,3.159-.084,3.159-.084l-3.159-.08c-2.009-.03-4.877-.114-8.314-.151" transform="translate(-529.969 -163.246)" fill="#6a1319"/>
      <path id="Trazado_917" data-name="Trazado 917" d="M590.677,49.524a5.439,5.439,0,0,0-3.591-.992,9.157,9.157,0,0,0-3.576.705A18.234,18.234,0,0,0,580.243,51a34.483,34.483,0,0,0-2.821,2.112c.074-.123.141-.254.2-.378.715-1.437,1.463-3.519,1-5.145a1.93,1.93,0,1,0-2.845,1.989.283.283,0,0,0,.411-.087.336.336,0,0,0,.127-.321c-.11-.645-.227-1.287-.335-1.929a1.042,1.042,0,0,1,1.2-.521c1.324.548.92,2.651.631,3.721a9.852,9.852,0,0,1-1.958,3.774,11.344,11.344,0,0,1-5.316,2.413,12,12,0,0,1-2.22.151,5.194,5.194,0,0,1-5.475-4.382,6.259,6.259,0,0,1,.719-4.426,5.475,5.475,0,0,1,3.623-2.592,4.984,4.984,0,0,1,3.527.669,4.757,4.757,0,0,1,2.213,2.677,4.636,4.636,0,0,1-1.755,5.3,4.023,4.023,0,0,1-3.219.632,2.818,2.818,0,0,1-2.2-2.39,2.544,2.544,0,0,1,.5-1.6,2.094,2.094,0,0,0,1.344,1.307,1.541,1.541,0,0,0,1.567-.487c.884-1.217-.672-2.374-1.852-2.127a2.749,2.749,0,0,0-2.163,3.22,3.6,3.6,0,0,0,3.473,2.815,5.035,5.035,0,0,0,3.809-1.665,5.267,5.267,0,0,0,.234-6.807,6.5,6.5,0,0,0-3.641-2.143,7.469,7.469,0,0,0-5.64.987,6.923,6.923,0,0,0-.97.782A38.891,38.891,0,0,0,565.1,31.769V28.9l-2.7.979a13.123,13.123,0,0,1-4.462.84,10.413,10.413,0,0,1-8.312-4.236l-1.677-2.59-1.688,2.59a10.519,10.519,0,0,1-8.3,4.236,13.211,13.211,0,0,1-4.473-.84l-2.694-.979v2.868a38.81,38.81,0,0,0,2.691,14.793,6.959,6.959,0,0,0-.977-.782,7.462,7.462,0,0,0-5.633-.987,6.553,6.553,0,0,0-3.651,2.143,5.255,5.255,0,0,0,.244,6.807,5.016,5.016,0,0,0,3.8,1.665,3.613,3.613,0,0,0,3.476-2.815,2.755,2.755,0,0,0-2.17-3.22c-1.18-.247-2.733.909-1.855,2.127a1.545,1.545,0,0,0,1.568.487,2.07,2.07,0,0,0,1.344-1.307,2.444,2.444,0,0,1,.506,1.6,2.815,2.815,0,0,1-2.2,2.39,4.035,4.035,0,0,1-3.222-.632,4.655,4.655,0,0,1-1.755-5.3,4.781,4.781,0,0,1,2.213-2.677,5,5,0,0,1,3.527-.669,5.5,5.5,0,0,1,3.631,2.592,6.313,6.313,0,0,1,.722,4.426,5.792,5.792,0,0,1-1.765,3.152,5.728,5.728,0,0,1-3.714,1.23,12.046,12.046,0,0,1-2.223-.151,11.283,11.283,0,0,1-5.314-2.413,9.763,9.763,0,0,1-1.956-3.774c-.291-1.07-.7-3.173.625-3.721a1.051,1.051,0,0,1,1.207.521q-.172.963-.335,1.929a.338.338,0,0,0,.124.321.283.283,0,0,0,.412.087,1.974,1.974,0,0,0,.271-3.2,2,2,0,0,0-3.119,1.207c-.454,1.625.288,3.708,1,5.145.063.124.133.255.2.378A33.128,33.128,0,0,0,515.643,51a18.071,18.071,0,0,0-3.262-1.769,9.166,9.166,0,0,0-3.581-.705,5.41,5.41,0,0,0-3.583.992,3.265,3.265,0,0,0-1.17,2.615,3.172,3.172,0,0,0,.3,1.447,4.225,4.225,0,0,0,.765,1.026,3.4,3.4,0,0,0,1,.609,2.71,2.71,0,0,0,.963.217c.144,0,.094-.036-.11-.144a4.224,4.224,0,0,1-.839-.561,5.864,5.864,0,0,1-.949-.989,2.58,2.58,0,0,1-.448-1.518,3.947,3.947,0,0,1,.177-1.066,3.565,3.565,0,0,1,.542-1.08,3.139,3.139,0,0,1,.983-.843,2.8,2.8,0,0,1,1.447-.361,8.651,8.651,0,0,1,3.533.742,20.445,20.445,0,0,1,3.306,1.835c.6.418,1.2.856,1.782,1.308-.14-.071-.291-.135-.431-.2a4.516,4.516,0,0,0-1.876-.424,3.656,3.656,0,0,0-.786.11,5.083,5.083,0,0,0-.9.351,5.537,5.537,0,0,0-.879.579,3.982,3.982,0,0,0-.7.789c-.041.14-.023.214.04.231.077.033.16,0,.275-.071a3.46,3.46,0,0,1,2.975-1.494,3.836,3.836,0,0,1,2.073.843c.812.565,1.688,1.2,2.641,1.882a31.6,31.6,0,0,0,3.005,1.9,2.117,2.117,0,0,0,.3.143,6.75,6.75,0,0,0,1.956.669c.281.131.555.264.849.388a10.559,10.559,0,0,0,4.225.843,8.468,8.468,0,0,0,2.805-.395,7.106,7.106,0,0,0,1.9-.936,3.162,3.162,0,0,0,1.368-2.049.88.88,0,0,0-.058-.541c-.11-.248-.347-.278-.588-.278a.483.483,0,0,0-.428.267,2,2,0,0,0-.227.6c-.055.194-.084.4-.117.578-.013.194-.03.284-.03.324a1.06,1.06,0,0,1-.485.812,6.508,6.508,0,0,1-1.173.642,8.667,8.667,0,0,1-1.424.434,6.865,6.865,0,0,1-1.257.147,9.276,9.276,0,0,1-4-.883c-.424-.193-.845-.411-1.267-.645a3.421,3.421,0,0,0,.9.2c.318.063.639.114.963.154a14.609,14.609,0,0,0,1.942.107,9.608,9.608,0,0,0,3.657-.716,6.293,6.293,0,0,0,3.827-6.02c-.007-.127-.016-.251-.027-.375a26.365,26.365,0,0,0,11.64,10.754l.753.3.745-.294a26.455,26.455,0,0,0,11.644-10.751,3.4,3.4,0,0,0-.027.368,6.3,6.3,0,0,0,3.815,6.02,9.738,9.738,0,0,0,3.674.716,14.582,14.582,0,0,0,1.936-.107c.323-.04.648-.09.966-.154a3.365,3.365,0,0,0,.895-.2c-.42.234-.842.452-1.259.645a9.337,9.337,0,0,1-4.005.883,6.735,6.735,0,0,1-1.247-.147,8.412,8.412,0,0,1-1.438-.434,6.826,6.826,0,0,1-1.173-.642,1.07,1.07,0,0,1-.478-.812c0-.04-.02-.13-.037-.324-.034-.181-.06-.384-.107-.578a2.239,2.239,0,0,0-.23-.6.494.494,0,0,0-.438-.267c-.234,0-.474.03-.585.278a.808.808,0,0,0-.04.541,3.131,3.131,0,0,0,1.36,2.049,7.027,7.027,0,0,0,1.893.936,8.495,8.495,0,0,0,2.808.395,10.566,10.566,0,0,0,4.229-.843c.281-.124.565-.257.849-.388a6.677,6.677,0,0,0,1.949-.669,2.015,2.015,0,0,0,.3-.143,31.359,31.359,0,0,0,3.005-1.9c.952-.685,1.832-1.318,2.638-1.882a3.832,3.832,0,0,1,2.072-.843,3.424,3.424,0,0,1,2.972,1.494c.126.071.2.1.281.071.066-.017.077-.09.033-.231a3.756,3.756,0,0,0-.685-.789,4.8,4.8,0,0,0-1.782-.93,3.652,3.652,0,0,0-.785-.11,4.57,4.57,0,0,0-1.883.424c-.14.063-.287.127-.428.2.6-.452,1.183-.889,1.778-1.308a20.647,20.647,0,0,1,3.313-1.835,8.664,8.664,0,0,1,3.534-.742,2.791,2.791,0,0,1,1.441.361,3.041,3.041,0,0,1,.983.843,3.5,3.5,0,0,1,.548,1.08,4.044,4.044,0,0,1,.173,1.066,2.581,2.581,0,0,1-.447,1.518,5.682,5.682,0,0,1-.95.989,4.217,4.217,0,0,1-.839.561c-.2.107-.254.144-.113.144a2.774,2.774,0,0,0,.973-.217,3.355,3.355,0,0,0,.993-.609,4.1,4.1,0,0,0,.772-1.026,3.172,3.172,0,0,0,.3-1.447,3.293,3.293,0,0,0-1.166-2.615m-42.37,10.986-.36.147-.369-.147c-.634-.258-15.748-6.582-15.748-28.74V30.392l1.293.468a14.265,14.265,0,0,0,4.831.9,11.544,11.544,0,0,0,9.18-4.711l.813-1.243.809,1.254a11.5,11.5,0,0,0,9.18,4.7,14.176,14.176,0,0,0,4.823-.9l1.3-.468v1.378c0,22.161-15.11,28.482-15.749,28.74" transform="translate(-504.046 -23.893)" fill="#6a1319"/>
      <path id="Trazado_918" data-name="Trazado 918" d="M660.929,44.44a12.375,12.375,0,0,1-9.818-5.051l-.17-.274-.178.274a12.343,12.343,0,0,1-9.815,5.051,15.123,15.123,0,0,1-5.085-.943l-.281-.1v.294c0,21.653,15.124,27.971,15.278,28.038l.081.03.072-.03c.158-.067,15.278-6.385,15.278-28.038v-.294l-.277.1a15.146,15.146,0,0,1-5.085.943m-9.988,26.865c-1.167-.518-14.8-6.994-14.931-27.32a15.119,15.119,0,0,0,4.938.873,12.794,12.794,0,0,0,9.993-5,12.764,12.764,0,0,0,9.988,5,15.23,15.23,0,0,0,4.941-.873c-.127,20.319-13.774,26.8-14.929,27.32" transform="translate(-607.04 -35.812)" fill="#6a1319"/>
      <path id="Trazado_919" data-name="Trazado 919" d="M676,80.032v.853l1.164.127.551.033c.495.02.74.237.74.645a26.478,26.478,0,0,1-1.792,5.249L673.078,95.9l-3.691-9.4-1.749-4.69a1.24,1.24,0,0,1-.07-.4.45.45,0,0,1,.2-.4,1.929,1.929,0,0,1,.9-.133H670v-.853c-1.465.061-2.711.094-3.757.094-.987,0-2.186-.033-3.607-.094v.853h.561c.659,0,1.05.08,1.164.244a28.643,28.643,0,0,1,1.216,2.878l4.859,12.129q.636,1.579,1.249,3.4h1.391a51.744,51.744,0,0,1,1.835-5.025l4.573-11.155a9.772,9.772,0,0,1,1.043-2.166,1.271,1.271,0,0,1,.943-.3h.542v-.853c-1.23.061-2.247.094-3.051.094-.773,0-1.765-.033-2.963-.094" transform="translate(-628.224 -67.85)" fill="#6a1319"/>
      <path id="Trazado_920" data-name="Trazado 920" d="M575.383,215.942h.866v-.535c-.95.04-1.755.06-2.437.06-.645,0-1.418-.02-2.334-.06v.535h.358c.431,0,.679.05.758.154s.341.705.786,1.8l3.156,7.606c.274.665.538,1.381.809,2.136h.9a31.3,31.3,0,0,1,1.194-3.152l2.962-7a6.044,6.044,0,0,1,.682-1.351.811.811,0,0,1,.605-.194h.36v-.535c-.8.04-1.454.06-1.989.06-.5,0-1.147-.02-1.919-.06v.535l.755.077.368.02c.314.013.468.15.468.408a15.907,15.907,0,0,1-1.164,3.289l-2.323,5.623-2.394-5.9-1.143-2.935a.908.908,0,0,1-.04-.254.268.268,0,0,1,.131-.248,1.268,1.268,0,0,1,.581-.084" transform="translate(-556.846 -173.85)" fill="#6a1319"/>
      <path id="Trazado_921" data-name="Trazado 921" d="M634.422,226.578c-.107.261-.437.385-.983.385h-.551v.538c.8-.04,1.7-.063,2.694-.063.849,0,1.638.023,2.36.063v-.538h-.586c-.548,0-.865-.111-.969-.334a21.046,21.046,0,0,1-.147-3.641v-2.935q0-2.322.046-3.236c.018-.391.074-.636.188-.733a1.359,1.359,0,0,1,.789-.144h.678v-.535c-.646.04-1.364.06-2.159.06-.956,0-1.915-.02-2.9-.06v.535h.713c.474,0,.755.117.845.348a23.556,23.556,0,0,1,.141,3.751v2.874a19.21,19.21,0,0,1-.164,3.664" transform="translate(-604.93 -173.849)" fill="#6a1319"/>
      <path id="Trazado_922" data-name="Trazado 922" d="M664.1,217.857c.023-.532.026-1.064.023-1.6.876-.066,1.721-.1,2.524-.1a7.671,7.671,0,0,1,2.552.368,11.126,11.126,0,0,1,.093,1.558h.594a9.292,9.292,0,0,1,.375-2.625c-.558-.046-1.113-.067-1.658-.06l-1.6.013-3.374.046c-.27,0-.671-.013-1.193-.033l-.925-.027h-.953v.535l.675.067a2.355,2.355,0,0,1,.755.141.388.388,0,0,1,.191.217,3.754,3.754,0,0,1,.121.869c.05.489.067,1.11.067,1.879v4.66c0,1.223-.037,2.012-.073,2.363a.971.971,0,0,1-.264.682,1.906,1.906,0,0,1-.953.144h-.283v.538c1.139-.04,2.055-.063,2.737-.063.712,0,1.839.023,3.363.063l1.381.024c.648,0,1.306-.027,1.988-.088l-.026-.38a23.567,23.567,0,0,1,.251-2.491H669.9c-.154.748-.3,1.37-.446,1.872a4.682,4.682,0,0,1-.919.224,14.477,14.477,0,0,1-1.658.08c-.98,0-1.9-.033-2.755-.093-.023-.348-.03-.893-.03-1.646l-.013-1.2v-2.083c.531-.041,1.046-.067,1.534-.067a7.694,7.694,0,0,1,2.33.187c.214.118.329.448.329,1v.488h.595c-.04-.725-.06-1.364-.06-1.9,0-.508.02-1.193.06-2.046h-.595v.552c0,.485-.094.776-.275.87a9.822,9.822,0,0,1-2.376.143c-.442,0-.956-.028-1.541-.061v-1.721Z" transform="translate(-626.596 -173.845)" fill="#6a1319"/>
      <path id="Trazado_923" data-name="Trazado 923" d="M712.562,226.207a.935.935,0,0,1-.22.6,1.22,1.22,0,0,1-.746.154h-.632v.538c1.287-.04,2.107-.063,2.468-.063.515,0,1.1.023,1.735.063v-.538l-.566-.04a1.759,1.759,0,0,1-.842-.195,1.335,1.335,0,0,1-.214-.732c-.046-.531-.077-1.461-.077-2.8v-5.876l6.328,7.548c.716.853,1.4,1.629,2.05,2.32a1.053,1.053,0,0,0,.365.271,10.494,10.494,0,0,0,1.4.261q-.144-2.152-.144-3.7v-3.831q0-3.38.081-3.724c.08-.348.394-.528.936-.528h.678v-.535q-1.294.061-2.109.06c-.526,0-1.258-.02-2.2-.06v.535l.665.057c.588.061.929.2,1.009.408a24.435,24.435,0,0,1,.128,3.741V225.6c-.478-.495-1.261-1.388-2.347-2.665l-3.009-3.57c-.555-.659-1.086-1.311-1.594-1.963s-1.066-1.313-1.648-2c-.508.04-.966.06-1.391.06-.391,0-.96-.02-1.7-.06v.535h.541a1.227,1.227,0,0,1,.643.144,1.008,1.008,0,0,1,.347.332,1.387,1.387,0,0,1,.134.672c.021.779.03,1.558.03,2.356v4.219c0,1.076-.034,1.919-.1,2.544" transform="translate(-666.064 -173.849)" fill="#6a1319"/>
      <path id="Trazado_924" data-name="Trazado 924" d="M789.156,226.575l-.869.05v.538c1.073-.04,1.932-.063,2.571-.063.7,0,1.424.023,2.186.063v-.538a2.836,2.836,0,0,1-.872-.124.859.859,0,0,1-.341-.3,9.532,9.532,0,0,1-.6-1.228l-4.456-10h-.6c-.233.632-.674,1.655-1.319,3.056l-2.417,5.3q-.653,1.418-1.277,2.644a1.324,1.324,0,0,1-.377.525,2,2,0,0,1-.807.12l-.261.01v.538c.638-.04,1.374-.063,2.224-.063.712,0,1.338.023,1.9.063v-.538l-.839-.093a1.336,1.336,0,0,1-.561-.135.327.327,0,0,1-.11-.281,6.59,6.59,0,0,1,.589-1.668l.595-1.364h5.1l.963,2.363a3.234,3.234,0,0,1,.263.792.281.281,0,0,1-.134.241,1.557,1.557,0,0,1-.552.094m-5.309-4.192,2.224-5.1,2.216,5.1Z" transform="translate(-719.902 -173.512)" fill="#6a1319"/>
      <path id="Trazado_925" data-name="Trazado 925" d="M551.993,302.573a2.842,2.842,0,0,1-.666.08,1.579,1.579,0,0,1-1.38-.815,1.668,1.668,0,0,1-.2-.856,1.386,1.386,0,0,1,1.478-1.5,1.667,1.667,0,0,1,.512.074,1.428,1.428,0,0,1,.458.221l.02.441h.17a2.21,2.21,0,0,1,.127-.755l-.381-.08a3.4,3.4,0,0,0-.819-.117,2.522,2.522,0,0,0-1.13.23,1.734,1.734,0,0,0-.719.638,1.98,1.98,0,0,0,0,1.885,1.7,1.7,0,0,0,.722.652,2.288,2.288,0,0,0,1.073.241,2.59,2.59,0,0,0,.6-.074,3.09,3.09,0,0,0,.585-.217c.037-.084.064-.154.1-.234l-.047-.051a1.413,1.413,0,0,1-.491.238" transform="translate(-539.416 -239.51)" fill="#6a1319"/>
      <path id="Trazado_926" data-name="Trazado 926" d="M568.824,302.65c-.013-.043-.08-.158-.16-.362l-1.261-2.935h-.18a9.59,9.59,0,0,1-.368.9l-.682,1.554c-.123.277-.245.534-.354.772a.556.556,0,0,1-.114.157.584.584,0,0,1-.224.033h-.069v.161c.17-.01.384-.017.621-.017.2,0,.371.007.539.017v-.161l-.245-.026a.419.419,0,0,1-.153-.034.115.115,0,0,1-.026-.087,2.207,2.207,0,0,1,.157-.488l.176-.4h1.441l.274.7a1.238,1.238,0,0,1,.077.234.091.091,0,0,1-.037.067.562.562,0,0,1-.159.027l-.245.013v.161c.3-.01.541-.017.729-.017s.394.007.608.017v-.161a.7.7,0,0,1-.244-.033.418.418,0,0,1-.1-.087m-2.253-1.123.628-1.5.626,1.5Z" transform="translate(-552.095 -239.58)" fill="#6a1319"/>
      <path id="Trazado_927" data-name="Trazado 927" d="M584.384,299.478c-.22,0-.467-.01-.748-.02v.154h.18c.148,0,.241.033.271.09a1.307,1.307,0,0,1,.064.582v1.882a1.662,1.662,0,0,1-.054.6c-.037.053-.117.08-.264.08h-.2V303c.3-.01.548-.017.738-.017s.438.007.756.017v-.161h-.184c-.144,0-.238-.026-.278-.083a1.7,1.7,0,0,1-.053-.6v-.856c.147-.007.274-.007.381-.007a2.175,2.175,0,0,1,.662.051c.064.033.091.127.091.281v.187h.164v-.585c0-.087.007-.287.02-.585h-.154l-.03.188a.718.718,0,0,1-.054.193.171.171,0,0,1-.13.04c-.184.014-.408.021-.652.021-.1,0-.2,0-.3-.007v-.8a5.348,5.348,0,0,1,.033-.581,4.35,4.35,0,0,1,.595-.036,3.066,3.066,0,0,1,.689.09,2.159,2.159,0,0,1,.057.468h.157a3.013,3.013,0,0,1,.09-.762c-.134-.013-.271-.02-.421-.02Z" transform="translate(-566.366 -239.655)" fill="#6a1319"/>
      <path id="Trazado_928" data-name="Trazado 928" d="M599.54,302.177c-.046.217-.087.4-.134.552a1.059,1.059,0,0,1-.257.061,3.051,3.051,0,0,1-.465.026c-.278,0-.541-.006-.789-.026,0-.1,0-.265,0-.481l-.007-.355v-.612c.151-.013.294-.013.435-.013a2.257,2.257,0,0,1,.659.047c.067.04.1.137.1.294v.143h.173c-.014-.213-.021-.4-.021-.554s.007-.352.021-.6h-.173v.163c0,.14-.024.227-.074.258a3.546,3.546,0,0,1-.679.037c-.124,0-.267,0-.437-.018v-.5l.007-.385c0-.161.006-.317,0-.468.254-.02.494-.033.722-.033a2.048,2.048,0,0,1,.719.11,3.629,3.629,0,0,1,.023.455h.174a3.254,3.254,0,0,1,.1-.766,3.61,3.61,0,0,0-.461-.02l-.448,0-.955.016c-.077,0-.194-.01-.344-.01l-.258-.01h-.276v.154l.2.023a.221.221,0,0,1,.267.107,1.5,1.5,0,0,1,.027.255c.013.141.016.321.016.552v1.367c0,.358,0,.589-.016.692a.277.277,0,0,1-.071.2.576.576,0,0,1-.271.04h-.08v.161c.314-.01.581-.017.776-.017s.518.007.95.017l.392.01c.183,0,.373-.01.554-.028v-.113a6.822,6.822,0,0,1,.073-.729Z" transform="translate(-576.74 -239.686)" fill="#6a1319"/>
      <path id="Trazado_929" data-name="Trazado 929" d="M611.058,299.492c.013.225.027.4.027.515v.3h.153l.034-.33c.013-.131.043-.2.076-.225a4.139,4.139,0,0,1,.686-.03h.247c.02.234.02.495.02.773v1.424c0,.3-.01.558-.02.752a.25.25,0,0,1-.067.17.379.379,0,0,1-.21.04h-.214v.161c.287-.01.538-.017.742-.017s.458.007.745.017v-.161h-.18c-.164,0-.264-.026-.287-.08a4.26,4.26,0,0,1-.041-.869v-1.421c0-.277.014-.538.031-.789h.2c.228,0,.435.006.613.023a.252.252,0,0,1,.13.033.47.47,0,0,1,.044.2l.027.324h.154c0-.258.02-.528.046-.812l-1.374.02c-.154,0-.689-.01-1.578-.02" transform="translate(-587.837 -239.689)" fill="#6a1319"/>
      <path id="Trazado_930" data-name="Trazado 930" d="M628.322,302.177c-.043.217-.087.4-.126.552a1.136,1.136,0,0,1-.261.061,3.059,3.059,0,0,1-.469.026c-.274,0-.535-.006-.775-.026-.007-.1-.011-.265-.011-.481v-.967c.148-.013.285-.013.432-.013a2.242,2.242,0,0,1,.655.047c.064.04.094.137.094.294v.143h.174c-.017-.213-.017-.4-.017-.554s0-.352.017-.6h-.174v.163c0,.14-.014.227-.077.258a3.429,3.429,0,0,1-.665.037c-.134,0-.278,0-.438-.018v-.5l0-.385c.007-.161.007-.317.007-.468.25-.02.488-.033.716-.033a2.057,2.057,0,0,1,.715.11,2.591,2.591,0,0,1,.027.455h.173a2.386,2.386,0,0,1,.108-.766,3.923,3.923,0,0,0-.472-.02l-.458,0-.95.016c-.077,0-.194-.01-.341-.01l-.258-.01h-.274v.154l.193.023a.621.621,0,0,1,.211.037.2.2,0,0,1,.057.069,1.253,1.253,0,0,1,.033.255c.014.141.014.321.014.552v1.367a6.864,6.864,0,0,1-.021.692.273.273,0,0,1-.07.2.571.571,0,0,1-.277.04h-.073v.161c.327-.01.581-.017.778-.017s.522.007.943.017l.395.01c.184,0,.37-.01.568-.028l-.01-.113c0-.117.026-.361.066-.729Z" transform="translate(-599.285 -239.686)" fill="#6a1319"/>
      <path id="Trazado_931" data-name="Trazado 931" d="M643.189,302.824a.688.688,0,0,1-.175-.184l-.471-.618c-.241-.311-.448-.582-.612-.816a1.343,1.343,0,0,0,.729-.367.876.876,0,0,0,.261-.622.714.714,0,0,0-.121-.411.677.677,0,0,0-.337-.261,1.8,1.8,0,0,0-.652-.1c-.11,0-.275.007-.519.016-.2,0-.365.014-.475.014-.153,0-.391-.01-.7-.02v.154h.13c.17,0,.274.033.312.1a4.231,4.231,0,0,1,.043.863v1.2a6,6,0,0,1-.041.987c-.027.056-.117.086-.263.086h-.181V303c.371-.01.632-.017.772-.017.184,0,.414.007.688.017v-.161h-.2c-.15,0-.244-.03-.271-.093a4.557,4.557,0,0,1-.047-.98v-1.2c0-.3.011-.582.033-.847a1.44,1.44,0,0,1,.522-.1.844.844,0,0,1,.585.184.659.659,0,0,1,.188.5.718.718,0,0,1-.231.571.931.931,0,0,1-.652.218c-.04,0-.121-.006-.21-.013l-.027.083a7.8,7.8,0,0,1,.528.642L642.68,303a2.967,2.967,0,0,1,.3-.017c.1,0,.224.007.364.017v-.161h-.068a.149.149,0,0,1-.086-.02" transform="translate(-610.588 -239.655)" fill="#6a1319"/>
      <path id="Trazado_932" data-name="Trazado 932" d="M655.844,299.492v.154h.2c.131,0,.208.037.234.11a5.9,5.9,0,0,1,.044,1.1v.842a6.205,6.205,0,0,1-.044,1.077c-.037.073-.124.106-.285.106h-.153v.161c.223-.01.478-.017.765-.017.238,0,.462.007.669.017v-.161h-.17c-.151,0-.252-.03-.274-.093a6.681,6.681,0,0,1-.044-1.067v-.863c0-.455,0-.771.02-.953a.35.35,0,0,1,.047-.21.359.359,0,0,1,.224-.047h.2v-.154c-.191.01-.4.02-.619.02-.264,0-.539-.01-.815-.02" transform="translate(-622.905 -239.689)" fill="#6a1319"/>
      <path id="Trazado_933" data-name="Trazado 933" d="M658.2,294.739a.191.191,0,0,0,.05-.117.131.131,0,0,0-.05-.1.145.145,0,0,0-.12-.05.4.4,0,0,0-.09.02,1.535,1.535,0,0,0-.134.117l-.736.7h.168l.672-.4a1.089,1.089,0,0,0,.241-.167" transform="translate(-623.902 -235.758)" fill="#6a1319"/>
      <path id="Trazado_934" data-name="Trazado 934" d="M666.94,302.65a3.73,3.73,0,0,1-.167-.362l-1.26-2.935h-.167c-.067.19-.194.492-.38.9l-.679,1.554c-.128.277-.245.534-.358.772a.425.425,0,0,1-.114.157.575.575,0,0,1-.224.033h-.077v.161c.184-.01.4-.017.632-.017.2,0,.378.007.539.017v-.161l-.238-.026a.372.372,0,0,1-.16-.034.116.116,0,0,1-.034-.087,2.185,2.185,0,0,1,.164-.488l.17-.4h1.448l.267.7a1.077,1.077,0,0,1,.074.234.088.088,0,0,1-.033.067.512.512,0,0,1-.16.027l-.24.013v.161c.3-.01.544-.017.728-.017s.395.007.615.017v-.161a.648.648,0,0,1-.244-.033.207.207,0,0,1-.1-.087m-2.256-1.123.628-1.5.629,1.5Z" transform="translate(-628.91 -239.58)" fill="#6a1319"/>
      <path id="Trazado_935" data-name="Trazado 935" d="M690.851,299.826a1.548,1.548,0,0,0-.641-.278,3.309,3.309,0,0,0-.669-.07l-.545.01-.669,0c-.1,0-.281,0-.548-.01v.154l.2.033a.471.471,0,0,1,.205.057.482.482,0,0,1,.042.218c.021.214.031.468.031.759v.728c0,.642-.016,1.094-.037,1.351l-.23.134v.124c.2-.021.371-.034.515-.034.077,0,.261.006.565.02l.3.007a2.024,2.024,0,0,0,1.484-.552,1.853,1.853,0,0,0,.572-1.391,1.785,1.785,0,0,0-.146-.737,1.376,1.376,0,0,0-.426-.525m-.425,2.631a1.52,1.52,0,0,1-1.083.361,4.171,4.171,0,0,1-.593-.05c-.02-.265-.026-.546-.026-.843V300.29a4.428,4.428,0,0,1,.026-.538,4.15,4.15,0,0,1,.616-.056,1.576,1.576,0,0,1,1.14.381,1.468,1.468,0,0,1,.387,1.106,1.656,1.656,0,0,1-.468,1.274" transform="translate(-647.91 -239.678)" fill="#6a1319"/>
      <path id="Trazado_936" data-name="Trazado 936" d="M708.683,302.177c-.043.217-.086.4-.12.552a1.326,1.326,0,0,1-.261.061,3.289,3.289,0,0,1-.475.026c-.278,0-.539-.006-.783-.026,0-.1-.006-.265-.006-.481v-.967c.154-.013.291-.013.427-.013a2.322,2.322,0,0,1,.665.047c.056.04.087.137.087.294v.143h.174c-.014-.213-.017-.4-.017-.554s0-.352.017-.6h-.174v.163c0,.14-.024.227-.077.258a3.339,3.339,0,0,1-.672.037c-.127,0-.267,0-.431-.018v-.5l0-.385c0-.161,0-.317,0-.468.248-.02.488-.033.716-.033a2.04,2.04,0,0,1,.722.11,2.873,2.873,0,0,1,.033.455h.16a3.125,3.125,0,0,1,.111-.766,3.826,3.826,0,0,0-.471-.02l-.452,0-.96.016c-.076,0-.19-.01-.338-.01l-.257-.01h-.274v.154l.194.023a.771.771,0,0,1,.217.037.183.183,0,0,1,.05.069.668.668,0,0,1,.033.255c.01.141.02.321.02.552v1.367c0,.358-.01.589-.02.692s-.037.17-.077.2a.557.557,0,0,1-.274.04h-.073v.161c.324-.01.578-.017.775-.017s.522.007.953.017l.384.01c.191,0,.379-.01.569-.028l-.007-.113c0-.117.021-.361.064-.729Z" transform="translate(-662.205 -239.686)" fill="#6a1319"/>
      <path id="Trazado_937" data-name="Trazado 937" d="M722.973,302.708a2.007,2.007,0,0,1-.381.077c-.174.013-.419.02-.732.02-.154,0-.317,0-.478-.01l0-.147,0-.706v-1.585a2.749,2.749,0,0,1,.037-.632c.02-.053.077-.08.167-.08h.311v-.154c-.3.01-.539.02-.709.02-.13,0-.391-.01-.779-.02v.154h.271c.11,0,.177.033.2.09a5.422,5.422,0,0,1,.031.833v1.374a5.088,5.088,0,0,1-.031.789.419.419,0,0,1-.23.188v.13c.33-.017.578-.028.735-.028l1.194.02a3.643,3.643,0,0,0,.611-.04c.02-.271.057-.565.091-.876h-.157Z" transform="translate(-673.459 -239.689)" fill="#6a1319"/>
      <path id="Trazado_938" data-name="Trazado 938" d="M734.876,299.492v.154h.2c.137,0,.214.037.237.11a6.178,6.178,0,0,1,.044,1.1v.842a6.135,6.135,0,0,1-.044,1.077c-.036.073-.126.106-.283.106h-.155v.161c.224-.01.482-.017.759-.017.24,0,.465.007.668.017v-.161h-.17c-.144,0-.241-.03-.267-.093a6.6,6.6,0,0,1-.04-1.067v-.863c0-.455.007-.771.013-.953a.325.325,0,0,1,.047-.21.392.392,0,0,1,.221-.047h.2v-.154c-.19.01-.38.02-.614.02-.271,0-.539-.01-.813-.02" transform="translate(-684.788 -239.689)" fill="#6a1319"/>
      <path id="Trazado_939" data-name="Trazado 939" d="M745.817,302.573a2.746,2.746,0,0,1-.658.08,1.55,1.55,0,0,1-.8-.218,1.6,1.6,0,0,1-.589-.6,1.818,1.818,0,0,1-.2-.856,1.478,1.478,0,0,1,.411-1.093,1.432,1.432,0,0,1,1.076-.409,1.585,1.585,0,0,1,.506.074,1.443,1.443,0,0,1,.461.221l.023.441h.164a2.456,2.456,0,0,1,.128-.755l-.378-.08a3.381,3.381,0,0,0-.82-.117,2.5,2.5,0,0,0-1.13.23,1.678,1.678,0,0,0-.712.638,1.907,1.907,0,0,0,0,1.885,1.651,1.651,0,0,0,.716.652,2.293,2.293,0,0,0,1.076.241,2.472,2.472,0,0,0,.592-.074,3.266,3.266,0,0,0,.591-.217,2.266,2.266,0,0,1,.1-.234l-.054-.051a1.438,1.438,0,0,1-.491.238" transform="translate(-691.182 -239.51)" fill="#6a1319"/>
      <path id="Trazado_940" data-name="Trazado 940" d="M762.633,302.65a2.856,2.856,0,0,1-.171-.362l-1.253-2.935h-.177c-.071.19-.194.492-.371.9l-.686,1.554c-.127.277-.24.534-.361.772a.373.373,0,0,1-.11.157.536.536,0,0,1-.22.033h-.08v.161c.181-.01.391-.017.632-.017.2,0,.375.007.541.017v-.161l-.241-.026a.429.429,0,0,1-.161-.034.129.129,0,0,1-.03-.087,2.249,2.249,0,0,1,.164-.488l.17-.4h1.445l.271.7a1.207,1.207,0,0,1,.076.234.077.077,0,0,1-.04.067.479.479,0,0,1-.154.027l-.247.013v.161c.3-.01.541-.017.726-.017.2,0,.4.007.628.017v-.161a.713.713,0,0,1-.254-.033.214.214,0,0,1-.1-.087m-2.257-1.123.629-1.5.625,1.5Z" transform="translate(-703.836 -239.58)" fill="#6a1319"/>
      <path id="Trazado_941" data-name="Trazado 941" d="M777.444,299.492a4.651,4.651,0,0,1,.037.515l-.01.3h.158l.036-.33c.007-.131.037-.2.081-.225a3.725,3.725,0,0,1,.668-.03h.26c.012.234.014.495.014.773v1.424c0,.3-.007.558-.023.752a.269.269,0,0,1-.064.17.355.355,0,0,1-.214.04h-.208v.161c.288-.01.535-.017.742-.017s.455.007.749.017v-.161h-.19c-.168,0-.251-.026-.281-.08a4.2,4.2,0,0,1-.037-.869v-1.421c0-.277.007-.538.024-.789h.194c.231,0,.441.006.622.023a.266.266,0,0,1,.126.033.583.583,0,0,1,.034.2l.033.324h.158a6.911,6.911,0,0,1,.049-.812l-1.378.02c-.157,0-.678-.01-1.581-.02" transform="translate(-718.119 -239.689)" fill="#6a1319"/>
      <path id="Trazado_942" data-name="Trazado 942" d="M794.735,302.177a5.468,5.468,0,0,1-.131.552,1.125,1.125,0,0,1-.254.061,3.174,3.174,0,0,1-.472.026c-.281,0-.538-.006-.785-.026,0-.1-.007-.265-.007-.481v-.967c.151-.013.3-.013.441-.013a2.24,2.24,0,0,1,.652.047c.061.04.1.137.1.294v.143h.164c-.013-.213-.018-.4-.018-.554s0-.352.018-.6h-.164v.163c0,.14-.034.227-.081.258a3.481,3.481,0,0,1-.673.037c-.13,0-.27,0-.441-.018v-.5l.007-.385c0-.161.01-.317,0-.468.254-.02.488-.033.719-.033a2.084,2.084,0,0,1,.729.11,3.634,3.634,0,0,1,.027.455h.167a2.739,2.739,0,0,1,.1-.766,3.771,3.771,0,0,0-.465-.02l-.455,0-.96.016c-.073,0-.18-.01-.334-.01l-.268-.01h-.261v.154l.191.023a.642.642,0,0,1,.207.037.191.191,0,0,1,.057.069.953.953,0,0,1,.037.255c.009.141.016.321.016.552v1.367q0,.537-.02.692a.272.272,0,0,1-.077.2.553.553,0,0,1-.274.04h-.073v.161c.32-.01.572-.017.768-.017s.525.007.959.017l.4.01c.18,0,.365-.01.555-.028l0-.113a6.578,6.578,0,0,1,.071-.729Z" transform="translate(-729.589 -239.686)" fill="#6a1319"/>
      <path id="Trazado_943" data-name="Trazado 943" d="M808.3,300.988a2.622,2.622,0,0,0-.685-.13,3.3,3.3,0,0,1-.678-.114.49.49,0,0,1-.251-.2.625.625,0,0,1-.09-.341.659.659,0,0,1,.223-.515.9.9,0,0,1,.625-.2,1.348,1.348,0,0,1,.468.077.713.713,0,0,1,.274.147.474.474,0,0,1,.046.265v.2h.181a2.561,2.561,0,0,1,.073-.689,2.808,2.808,0,0,0-.5-.163,2.108,2.108,0,0,0-.5-.053,1.431,1.431,0,0,0-.977.314,1,1,0,0,0-.341.792.953.953,0,0,0,.107.478.763.763,0,0,0,.318.285,3,3,0,0,0,.765.137,2.026,2.026,0,0,1,.585.1.484.484,0,0,1,.24.2.693.693,0,0,1,.084.341.721.721,0,0,1-.252.562,1.117,1.117,0,0,1-.731.22,1.521,1.521,0,0,1-.4-.05.918.918,0,0,1-.33-.15.3.3,0,0,1-.117-.12.885.885,0,0,1-.023-.3v-.124h-.175a4.222,4.222,0,0,1-.039.765,2.528,2.528,0,0,0,.485.144,2.74,2.74,0,0,0,.482.05,1.651,1.651,0,0,0,1.119-.358,1.1,1.1,0,0,0,.418-.862.83.83,0,0,0-.11-.438.629.629,0,0,0-.288-.264" transform="translate(-740.604 -239.511)" fill="#6a1319"/>
      <path id="Trazado_944" data-name="Trazado 944" d="M820.641,300.988a2.749,2.749,0,0,0-.693-.13,3.3,3.3,0,0,1-.675-.114.494.494,0,0,1-.247-.2.583.583,0,0,1-.1-.341.664.664,0,0,1,.231-.515.9.9,0,0,1,.625-.2,1.325,1.325,0,0,1,.465.077.637.637,0,0,1,.278.147.5.5,0,0,1,.05.265v.2h.174a2.66,2.66,0,0,1,.077-.689,2.988,2.988,0,0,0-.5-.163,2.127,2.127,0,0,0-.5-.053,1.386,1.386,0,0,0-.97.314,1.014,1.014,0,0,0-.351.792.925.925,0,0,0,.11.478.689.689,0,0,0,.315.285,3.067,3.067,0,0,0,.766.137,1.968,1.968,0,0,1,.581.1.49.49,0,0,1,.245.2.659.659,0,0,1,.083.341.712.712,0,0,1-.254.562,1.105,1.105,0,0,1-.725.22,1.572,1.572,0,0,1-.407-.05,1.046,1.046,0,0,1-.328-.15.352.352,0,0,1-.117-.12.9.9,0,0,1-.03-.3v-.124h-.167a4.438,4.438,0,0,1-.04.765,2.483,2.483,0,0,0,.492.144,2.586,2.586,0,0,0,.481.05,1.665,1.665,0,0,0,1.118-.358,1.125,1.125,0,0,0,.418-.862.8.8,0,0,0-.11-.438.676.676,0,0,0-.287-.264" transform="translate(-750.267 -239.511)" fill="#6a1319"/>
      <path id="Trazado_945" data-name="Trazado 945" d="M833.749,302.177a4.656,4.656,0,0,1-.13.552,1.035,1.035,0,0,1-.25.061,3.232,3.232,0,0,1-.475.026c-.277,0-.535-.006-.779-.026,0-.1-.007-.265-.007-.481v-.967c.147-.013.295-.013.432-.013a2.281,2.281,0,0,1,.661.047c.053.04.084.137.084.294v.143h.181c-.013-.213-.02-.4-.02-.554s.007-.352.02-.6h-.181v.163c0,.14-.017.227-.077.258a3.251,3.251,0,0,1-.665.037c-.12,0-.267,0-.435-.018v-.5l.007-.385v-.468c.251-.02.485-.033.715-.033a2.075,2.075,0,0,1,.729.11,4.1,4.1,0,0,1,.027.455h.163a2.867,2.867,0,0,1,.108-.766,3.891,3.891,0,0,0-.468-.02l-.455,0-.959.016c-.073,0-.187-.01-.331-.01l-.271-.01H831.1v.154l.19.023a.7.7,0,0,1,.221.037.149.149,0,0,1,.053.069,1.188,1.188,0,0,1,.034.255c.01.141.017.321.017.552v1.367c0,.358-.007.589-.017.692a.3.3,0,0,1-.076.2.579.579,0,0,1-.274.04h-.074v.161c.322-.01.576-.017.769-.017s.526.007.957.017l.384.01c.188,0,.378-.01.572-.028l0-.113c0-.117.024-.361.064-.729Z" transform="translate(-760.133 -239.686)" fill="#6a1319"/>
      <path id="Trazado_946" data-name="Trazado 946" d="M848.2,299.492v.154l.188.02c.174.017.265.054.294.12a9.157,9.157,0,0,1,.03,1.1v1.6c-.134-.146-.355-.4-.665-.786l-.85-1.046c-.16-.19-.311-.384-.454-.571l-.458-.589c-.152.01-.284.02-.4.02s-.268-.01-.482-.02v.154h.151a.368.368,0,0,1,.19.047.511.511,0,0,1,.1.1.473.473,0,0,1,.033.2c0,.227,0,.461,0,.691v1.237c0,.311,0,.562-.024.746a.253.253,0,0,1-.063.177.35.35,0,0,1-.211.04H845.4v.161c.368-.01.6-.017.7-.017.154,0,.315.007.492.017v-.161l-.161-.013a.543.543,0,0,1-.24-.047.579.579,0,0,1-.064-.217c-.007-.16-.013-.431-.013-.826v-1.722l1.789,2.213c.2.254.394.481.585.682a.248.248,0,0,0,.1.08,2.556,2.556,0,0,0,.394.07c-.03-.418-.041-.775-.041-1.076V300.9c0-.658,0-1.026.02-1.09.024-.107.117-.161.264-.161h.194v-.154c-.244.01-.441.02-.6.02-.141,0-.354-.01-.622-.02" transform="translate(-771.329 -239.689)" fill="#6a1319"/>
    </g>
  </g>
</svg>
